*
G04 Mass Parameters ***
*
G04 Image ***
*
%ING:\DRM V3R5\DRM1-33_N.SST*%
%ICAS*%
%MOIN*%
%IPPOS*%
%ASAXBY*%
G74*%FSLAN2X34Y34*%
*
G04 Aperture Definitions ***
*
%ADD10C,0.0790*%
%ADD11R,0.0700X0.0700*%
%ADD12C,0.1500*%
%ADD13C,0.0650*%
%ADD14R,0.0650X0.0650*%
%ADD15R,0.0790X0.0790*%
%ADD16C,0.0580*%
%ADD17R,0.0580X0.0580*%
%ADD18C,0.0690*%
%ADD19R,0.0690X0.0690*%
%ADD20C,0.0700*%
%ADD21C,0.1000*%
%ADD22R,0.1000X0.1000*%
%ADD23C,0.0550*%
%ADD24C,0.0450*%
%ADD25C,0.1200*%
%ADD26C,0.0750*%
%ADD27O,0.1000X0.0250*%
%ADD28R,0.1000X0.0250*%
%ADD29C,0.0500*%
%ADD30C,0.0200*%
%ADD31C,0.0500*%
%ADD32C,0.0300*%
%ADD33C,0.0500*%
%ADD34C,0.0140*%
%ADD35C,0.0140*%
%ADD36C,0.0790*%
%ADD37R,0.0700X0.0700*%
%ADD38C,0.1500*%
%ADD39C,0.0650*%
%ADD40R,0.0650X0.0650*%
%ADD41R,0.0790X0.0790*%
%ADD42C,0.0580*%
%ADD43R,0.0580X0.0580*%
%ADD44C,0.0690*%
%ADD45R,0.0690X0.0690*%
%ADD46C,0.0700*%
%ADD47R,0.7000X0.1300*%
%ADD48C,0.1000*%
%ADD49R,0.1000X0.1000*%
%ADD50C,0.0550*%
%ADD51C,0.0450*%
%ADD52C,0.1200*%
%ADD53C,0.0750*%
%ADD54C,0.0010*%
%ADD55C,0.0100*%
%ADD56C,0.0720*%
%ADD57R,0.0720X0.0720*%
%ADD58C,0.0780*%
%ADD59R,0.0780X0.0780*%
%ADD60R,0.0750X0.0750*%
%ADD61C,0.0990*%
%ADD62R,0.0990X0.0990*%
%ADD63C,0.0950*%
%ADD64R,0.0950X0.0950*%
%ADD65C,0.0750*%
%ADD66C,0.0750*%
%ADD67C,0.0850*%
%ADD68R,0.0800X0.0800*%
%ADD69C,0.0890*%
%ADD70R,0.0890X0.0890*%
%ADD71C,0.0800*%
%ADD72R,0.1200X0.1200*%
%ADD73C,0.0600*%
%ADD74C,0.1100*%
%ADD75R,0.1100X0.1100*%
%ADD76R,0.0850X0.0850*%
%ADD77C,0.1300*%
%ADD78O,0.1000X0.0250*%
%ADD79R,0.1000X0.0250*%
%ADD80C,0.0550*%
%ADD81C,0.0550*%
%ADD82C,0.0080*%
%ADD83C,0.0460*%
*
G04 Plot Data ***
*
G54D54*
G01X0040381Y0283778D02*
X0040496Y0283836D01*
Y0284182D01*
X0040381Y0284240D01*
X0040149D01*
X0040034Y0284124D01*
Y0283778D01*
X0039803D01*
Y0284240D01*
X0040149Y0283527D02*
X0040496Y0283700D01*
X0040149Y0283238D02*
Y0283584D01*
X0040034Y0283700D01*
X0039918D01*
X0039803Y0283584D01*
Y0283238D01*
X0040496D01*
X0040265Y0283160D02*
Y0282698D01*
X0040496Y0283160D02*
X0040149D01*
X0039803Y0282987D01*
Y0282871D01*
X0040149Y0282698D01*
X0040496D01*
X0039803Y0282620D02*
X0040034D01*
X0040496Y0282389D01*
X0040034Y0282158D01*
X0039803D01*
G54D55*
G01X0009614Y0344137D02*
X0009437D01*
X0009526D02*
Y0344671D01*
X0009437Y0344582D01*
X0009103Y0344137D02*
X0008748D01*
X0009103Y0344493D01*
Y0344582D01*
X0009059Y0344671D01*
X0008792D01*
X0008748Y0344582D01*
X0008503Y0344137D02*
X0008326D01*
X0008414D02*
Y0344671D01*
X0008326Y0344582D01*
X0043745Y0344137D02*
X0043656Y0344226D01*
X0043611Y0344315D01*
Y0344493D01*
X0043656Y0344582D01*
X0043745Y0344671D01*
X0043834D01*
X0043923Y0344582D01*
X0043967Y0344493D01*
Y0344315D01*
X0043923Y0344226D01*
X0043834Y0344137D01*
X0043745D01*
X0043367D02*
X0043011D01*
X0043367Y0344493D01*
Y0344582D01*
X0043323Y0344671D01*
X0043056D01*
X0043011Y0344582D01*
X0042767Y0344137D02*
X0042589D01*
X0042678D02*
Y0344671D01*
X0042589Y0344582D01*
X-0029006Y0278654D02*
X-0029273D01*
X-0029317Y0278743D01*
Y0278832D01*
X-0029273Y0278921D01*
X-0029006D01*
X-0028962Y0278832D01*
Y0278743D01*
X-0029139Y0278387D01*
X-0029562D02*
X-0029739D01*
X-0029651D02*
Y0278921D01*
X-0029739Y0278832D01*
X-0030073Y0278387D02*
X-0030251D01*
X-0030162D02*
Y0278921D01*
X-0030251Y0278832D01*
X0009492Y0276987D02*
X0009759Y0277521D01*
X0009403D01*
X0009159Y0276987D02*
X0008981D01*
X0009070D02*
Y0277521D01*
X0008981Y0277432D01*
X0008648Y0276987D02*
X0008470D01*
X0008559D02*
Y0277521D01*
X0008470Y0277432D01*
X-0026472Y0344224D02*
X-0026383Y0344135D01*
X-0026206D01*
X-0026117Y0344224D01*
Y0344313D01*
X-0026295Y0344491D01*
X-0026117Y0344669D01*
X-0026472D01*
X-0026717Y0344135D02*
X-0027072D01*
X-0026717Y0344491D01*
Y0344580D01*
X-0026761Y0344669D01*
X-0027028D01*
X-0027072Y0344580D01*
X-0027317Y0344135D02*
X-0027495D01*
X-0027406D02*
Y0344669D01*
X-0027495Y0344580D01*
X0043562Y0277079D02*
X0043829D01*
X0043873Y0276990D01*
Y0276901D01*
X0043829Y0276813D01*
X0043562D01*
X0043517Y0276901D01*
Y0276990D01*
X0043695Y0277346D01*
X0043273Y0276813D02*
X0043095D01*
X0043184D02*
Y0277346D01*
X0043095Y0277257D01*
X0042762Y0276813D02*
X0042584D01*
X0042673D02*
Y0277346D01*
X0042584Y0277257D01*
X0073045Y0277295D02*
X0073089Y0277206D01*
X0073356D01*
X0073401Y0277295D01*
Y0277473D01*
X0073312Y0277562D01*
X0073045D01*
Y0277740D01*
X0073401D01*
X0072801Y0277206D02*
X0072623D01*
X0072712D02*
Y0277740D01*
X0072623Y0277651D01*
X0072289Y0277206D02*
X0072112D01*
X0072201D02*
Y0277740D01*
X0072112Y0277651D01*
X0068791Y0344216D02*
X0068835Y0344127D01*
X0069102D01*
X0069146Y0344216D01*
Y0344394D01*
X0069057Y0344483D01*
X0068791D01*
Y0344661D01*
X0069146D01*
X0068546Y0344127D02*
X0068191D01*
X0068546Y0344483D01*
Y0344572D01*
X0068502Y0344661D01*
X0068235D01*
X0068191Y0344572D01*
X0067946Y0344127D02*
X0067769D01*
X0067857D02*
Y0344661D01*
X0067769Y0344572D01*
X0007400Y0292708D02*
X0007483D01*
Y0292792D01*
X0007400D01*
Y0292708D01*
X0006742Y0292958D02*
X0006992D01*
X0007075Y0293042D01*
Y0293125D01*
X0006992Y0293208D01*
X0006742D01*
Y0292708D01*
G54D82*
G01X-0004067Y0314344D02*
Y0314455D01*
Y0314400D02*
X-0003734D01*
X-0003790Y0314455D01*
X-0003237Y0312757D02*
X-0002904Y0312590D01*
Y0312812D01*
X-0003126Y0313000D02*
Y0313222D01*
X-0002904Y0313111D01*
Y0313056D01*
X-0003237D01*
Y0313410D02*
Y0313521D01*
Y0313466D02*
X-0002904D01*
X-0002959Y0313521D01*
X-0003182Y0313764D02*
X-0003237Y0313792D01*
Y0313959D01*
X-0003182Y0313987D01*
X-0002959D01*
X-0002904Y0313959D01*
Y0313792D01*
X-0002959Y0313764D01*
X-0024453Y0326806D02*
Y0326694D01*
Y0326750D02*
X-0024786D01*
X-0024730Y0326694D01*
X-0007585Y0309173D02*
Y0309062D01*
Y0309118D02*
X-0007918D01*
X-0007863Y0309062D01*
X-0007696Y0308819D02*
Y0308597D01*
X-0007918Y0308708D01*
Y0308763D01*
X-0007585D01*
Y0308409D02*
Y0308298D01*
Y0308353D02*
X-0007918D01*
X-0007863Y0308298D01*
X-0007641Y0308054D02*
X-0007585Y0308027D01*
Y0307860D01*
X-0007641Y0307832D01*
X-0007863D01*
X-0007918Y0307860D01*
Y0308027D01*
X-0007863Y0308054D01*
X-0023689Y0329145D02*
Y0329312D01*
X-0023634Y0329340D01*
X-0023578D01*
X-0023523Y0329312D01*
Y0329145D01*
X-0023578Y0329118D01*
X-0023634D01*
X-0023856Y0329229D01*
X-0023578Y0328708D02*
X-0023523Y0328763D01*
Y0328874D01*
X-0023578Y0328930D01*
X-0023634D01*
X-0023745Y0328819D01*
X-0023856Y0328930D01*
Y0328708D01*
X-0023523Y0328520D02*
Y0328409D01*
Y0328464D02*
X-0023856D01*
X-0023800Y0328409D01*
X-0023578Y0328165D02*
X-0023523Y0328138D01*
Y0327971D01*
X-0023578Y0327943D01*
X-0023800D01*
X-0023856Y0327971D01*
Y0328138D01*
X-0023800Y0328165D01*
X-0010267Y0289184D02*
Y0289295D01*
Y0289240D02*
X-0009934D01*
X-0009990Y0289295D01*
X0063942Y0305009D02*
X0063970Y0305065D01*
Y0305120D01*
X0063942Y0305176D01*
X0063775D01*
X0063748Y0305120D01*
Y0305065D01*
X0063775Y0305009D01*
X0063942D01*
X0063970Y0304954D01*
Y0304898D01*
X0063942Y0304843D01*
X0063775D01*
X0063748Y0304898D01*
Y0304954D01*
X0063775Y0305009D01*
X0063560Y0304954D02*
X0063338D01*
X0063449Y0305176D01*
X0063504D01*
Y0304843D01*
X0063150D02*
X0063039D01*
X0063094D02*
Y0305176D01*
X0063039Y0305120D01*
X0062795Y0304898D02*
X0062768Y0304843D01*
X0062601D01*
X0062573Y0304898D01*
Y0305120D01*
X0062601Y0305176D01*
X0062768D01*
X0062795Y0305120D01*
X-0009121Y0287138D02*
Y0287305D01*
X-0009065Y0287332D01*
X-0009009D01*
X-0008954Y0287305D01*
Y0287138D01*
X-0009009Y0287110D01*
X-0009065D01*
X-0009287Y0287221D01*
X-0009232Y0287742D02*
X-0009287Y0287687D01*
Y0287576D01*
X-0009232Y0287520D01*
X-0009176D01*
X-0009065Y0287631D01*
X-0008954Y0287520D01*
Y0287742D01*
X-0009287Y0287930D02*
Y0288041D01*
Y0287986D02*
X-0008954D01*
X-0009009Y0288041D01*
X-0009232Y0288284D02*
X-0009287Y0288312D01*
Y0288479D01*
X-0009232Y0288507D01*
X-0009009D01*
X-0008954Y0288479D01*
Y0288312D01*
X-0009009Y0288284D01*
X0066257Y0296116D02*
Y0296004D01*
Y0296060D02*
X0065924D01*
X0065980Y0296004D01*
X0056878Y0302128D02*
X0056933Y0302073D01*
X0057044D01*
X0057100Y0302128D01*
Y0302184D01*
X0056989Y0302295D01*
X0057100Y0302406D01*
X0056878D01*
X0056690Y0302184D02*
X0056468D01*
X0056579Y0302406D01*
X0056634D01*
Y0302073D01*
X0056280D02*
X0056169D01*
X0056224D02*
Y0302406D01*
X0056169Y0302350D01*
X0055925Y0302128D02*
X0055898Y0302073D01*
X0055731D01*
X0055703Y0302128D01*
Y0302350D01*
X0055731Y0302406D01*
X0055898D01*
X0055925Y0302350D01*
X0065101Y0297302D02*
Y0297135D01*
X0065045Y0297108D01*
X0064989D01*
X0064934Y0297135D01*
Y0297302D01*
X0064989Y0297330D01*
X0065045D01*
X0065267Y0297219D01*
X0065156Y0296920D02*
Y0296698D01*
X0064934Y0296809D01*
Y0296864D01*
X0065267D01*
Y0296510D02*
Y0296399D01*
Y0296454D02*
X0064934D01*
X0064989Y0296399D01*
X0065212Y0296155D02*
X0065267Y0296128D01*
Y0295961D01*
X0065212Y0295933D01*
X0064989D01*
X0064934Y0295961D01*
Y0296128D01*
X0064989Y0296155D01*
X0067495Y0340437D02*
Y0340270D01*
X0067440Y0340242D01*
X0067384D01*
X0067329Y0340270D01*
Y0340437D01*
X0067384Y0340465D01*
X0067440D01*
X0067662Y0340353D01*
X0067440Y0340847D02*
X0067384D01*
X0067329Y0340819D01*
Y0340708D01*
X0067384Y0340680D01*
X0067662D01*
Y0340652D02*
Y0340763D01*
X0052046Y0302133D02*
X0051934D01*
X0051990D02*
Y0302466D01*
X0051934Y0302410D01*
X0078915Y0345268D02*
X0078943Y0345213D01*
X0079110D01*
X0079138Y0345268D01*
Y0345379D01*
X0079082Y0345435D01*
X0078915D01*
Y0345546D01*
X0079138D01*
X0078533Y0345324D02*
Y0345268D01*
X0078561Y0345213D01*
X0078672D01*
X0078700Y0345268D01*
Y0345546D01*
X0078728D02*
X0078617D01*
X0014434Y0311787D02*
X0014545D01*
X0014490D02*
Y0311454D01*
X0014545Y0311510D01*
X0017014Y0294267D02*
X0017125D01*
X0017070D02*
Y0293934D01*
X0017125Y0293990D01*
X0010174Y0301357D02*
X0010285D01*
X0010230D02*
Y0301024D01*
X0010285Y0301080D01*
X0044866Y0302033D02*
X0044754D01*
X0044810D02*
Y0302366D01*
X0044754Y0302310D01*
X0009004Y0302202D02*
X0009171D01*
X0009199Y0302146D01*
Y0302091D01*
X0009171Y0302035D01*
X0009004D01*
X0008977Y0302091D01*
Y0302146D01*
X0009088Y0302368D01*
X0008789Y0302146D02*
X0008567D01*
X0008678Y0302368D01*
X0008733D01*
Y0302035D01*
X0008379D02*
X0008268D01*
X0008323D02*
Y0302368D01*
X0008268Y0302313D01*
X0008024Y0302091D02*
X0007997Y0302035D01*
X0007830D01*
X0007802Y0302091D01*
Y0302313D01*
X0007830Y0302368D01*
X0007997D01*
X0008024Y0302313D01*
X0059086Y0302243D02*
X0058974D01*
X0059030D02*
Y0302576D01*
X0058974Y0302520D01*
X0064200Y0302234D02*
X0063978D01*
X0064089Y0302456D01*
X0064144D01*
Y0302123D01*
X0063790Y0302234D02*
X0063568D01*
X0063679Y0302456D01*
X0063734D01*
Y0302123D01*
X0063380D02*
X0063269D01*
X0063324D02*
Y0302456D01*
X0063269Y0302400D01*
X0063025Y0302178D02*
X0062998Y0302123D01*
X0062831D01*
X0062803Y0302178D01*
Y0302400D01*
X0062831Y0302456D01*
X0062998D01*
X0063025Y0302400D01*
X-0009700Y0308935D02*
X-0009756Y0308991D01*
X-0009783Y0309046D01*
Y0309157D01*
X-0009756Y0309213D01*
X-0009700Y0309268D01*
X-0009644D01*
X-0009589Y0309213D01*
X-0009561Y0309157D01*
Y0309046D01*
X-0009589Y0308991D01*
X-0009644Y0308935D01*
X-0009700D01*
X-0009971Y0309046D02*
X-0010193D01*
X-0010082Y0309268D01*
X-0010027D01*
Y0308935D01*
X-0010381D02*
X-0010492D01*
X-0010437D02*
Y0309268D01*
X-0010492Y0309213D01*
X-0010735Y0308991D02*
X-0010763Y0308935D01*
X-0010930D01*
X-0010958Y0308991D01*
Y0309213D01*
X-0010930Y0309268D01*
X-0010763D01*
X-0010735Y0309213D01*
X-0016537Y0308347D02*
X-0016204Y0308180D01*
Y0308402D01*
X-0016482Y0308812D02*
X-0016537Y0308757D01*
Y0308646D01*
X-0016482Y0308590D01*
X-0016426D01*
X-0016315Y0308701D01*
X-0016204Y0308590D01*
Y0308812D01*
X-0016537Y0309000D02*
Y0309111D01*
Y0309056D02*
X-0016204D01*
X-0016259Y0309111D01*
X-0016482Y0309354D02*
X-0016537Y0309382D01*
Y0309549D01*
X-0016482Y0309577D01*
X-0016259D01*
X-0016204Y0309549D01*
Y0309382D01*
X-0016259Y0309354D01*
X0050000Y0302073D02*
X0049778D01*
X0050000Y0302295D01*
Y0302350D01*
X0049972Y0302406D01*
X0049805D01*
X0049778Y0302350D01*
X0049590Y0302184D02*
X0049368D01*
X0049479Y0302406D01*
X0049534D01*
Y0302073D01*
X0049180D02*
X0049069D01*
X0049124D02*
Y0302406D01*
X0049069Y0302350D01*
X0048825Y0302128D02*
X0048798Y0302073D01*
X0048631D01*
X0048603Y0302128D01*
Y0302350D01*
X0048631Y0302406D01*
X0048798D01*
X0048825Y0302350D01*
X-0012819Y0316403D02*
X-0012875Y0316376D01*
Y0316209D01*
X-0012819Y0316181D01*
X-0012708D01*
X-0012653Y0316237D01*
Y0316403D01*
X-0012542D01*
Y0316181D01*
X-0012764Y0316591D02*
Y0316813D01*
X-0012542Y0316702D01*
Y0316647D01*
X-0012875D01*
Y0317001D02*
Y0317112D01*
Y0317057D02*
X-0012542D01*
X-0012597Y0317112D01*
X-0012819Y0317355D02*
X-0012875Y0317383D01*
Y0317550D01*
X-0012819Y0317578D01*
X-0012597D01*
X-0012542Y0317550D01*
Y0317383D01*
X-0012597Y0317355D01*
X-0023261Y0322129D02*
X-0023372D01*
X-0023317D02*
Y0322462D01*
X-0023372Y0322407D01*
X-0023616Y0322184D02*
X-0023643Y0322129D01*
X-0023810D01*
X-0023838Y0322184D01*
Y0322407D01*
X-0023810Y0322462D01*
X-0023643D01*
X-0023616Y0322407D01*
X-0024026Y0322129D02*
X-0024137D01*
X-0024081D02*
Y0322462D01*
X-0024026D02*
X-0024137D01*
X-0024380Y0322018D02*
X-0024602D01*
X-0024873Y0322296D02*
X-0024790Y0322129D01*
X-0025012Y0322296D02*
X-0024846D01*
X-0024790Y0322351D01*
Y0322407D01*
X-0024846Y0322462D01*
X-0025012D01*
Y0322129D01*
X-0025256Y0322296D02*
X-0025422D01*
X-0025200Y0322129D02*
X-0025422D01*
Y0322462D01*
X-0025200D01*
X-0025804Y0322129D02*
Y0322462D01*
X-0025832Y0322129D02*
X-0025666D01*
X-0025610Y0322240D01*
Y0322351D01*
X-0025666Y0322462D01*
X-0025832D01*
X-0026214Y0322129D02*
X-0026242Y0322184D01*
Y0322407D01*
X-0026214Y0322462D01*
X-0026048D01*
X-0026020Y0322407D01*
Y0322184D01*
X-0026048Y0322129D01*
X-0026214D01*
X-0026430Y0322184D02*
X-0026458Y0322129D01*
X-0026624D01*
X-0026652Y0322184D01*
Y0322407D01*
X-0026624Y0322462D01*
X-0026458D01*
X-0026430Y0322407D01*
X-0026840Y0322462D02*
Y0322129D01*
X-0026896Y0322184D01*
X-0027007Y0322407D01*
X-0027062Y0322462D01*
Y0322129D01*
X-0027306Y0322296D02*
X-0027472D01*
X-0027250Y0322129D02*
X-0027472D01*
Y0322462D01*
X-0027250D01*
X-0004298Y0338644D02*
X-0004270Y0338589D01*
X-0004103D01*
X-0004076Y0338644D01*
Y0338756D01*
X-0004131Y0338811D01*
X-0004298D01*
Y0338922D01*
X-0004076D01*
X-0004708Y0338644D02*
X-0004652Y0338589D01*
X-0004541D01*
X-0004486Y0338644D01*
Y0338700D01*
X-0004597Y0338811D01*
X-0004486Y0338922D01*
X-0004708D01*
X-0004896Y0338589D02*
X-0005007D01*
X-0004951D02*
Y0338922D01*
X-0005007Y0338867D01*
X-0005250Y0338644D02*
X-0005278Y0338589D01*
X-0005444D01*
X-0005472Y0338644D01*
Y0338867D01*
X-0005444Y0338922D01*
X-0005278D01*
X-0005250Y0338867D01*
X0009464Y0339369D02*
X0009242D01*
X0009464Y0339591D01*
Y0339647D01*
X0009437Y0339702D01*
X0009270D01*
X0009242Y0339647D01*
X0008832Y0339424D02*
X0008888Y0339369D01*
X0008999D01*
X0009054Y0339424D01*
Y0339480D01*
X0008943Y0339591D01*
X0009054Y0339702D01*
X0008832D01*
X0008644Y0339369D02*
X0008533D01*
X0008589D02*
Y0339702D01*
X0008533Y0339647D01*
X0008290Y0339424D02*
X0008262Y0339369D01*
X0008096D01*
X0008068Y0339424D01*
Y0339647D01*
X0008096Y0339702D01*
X0008262D01*
X0008290Y0339647D01*
X0013129Y0282739D02*
X0013018D01*
X0013073D02*
Y0283072D01*
X0013018Y0283017D01*
X0012552Y0282794D02*
X0012608Y0282739D01*
X0012719D01*
X0012774Y0282794D01*
Y0282850D01*
X0012663Y0282961D01*
X0012774Y0283072D01*
X0012552D01*
X0012364Y0282739D02*
X0012253D01*
X0012309D02*
Y0283072D01*
X0012253Y0283017D01*
X0012010Y0282794D02*
X0011982Y0282739D01*
X0011816D01*
X0011788Y0282794D01*
Y0283017D01*
X0011816Y0283072D01*
X0011982D01*
X0012010Y0283017D01*
X0022476Y0286359D02*
X0022420Y0286414D01*
X0022392Y0286470D01*
Y0286581D01*
X0022420Y0286637D01*
X0022476Y0286692D01*
X0022531D01*
X0022587Y0286637D01*
X0022614Y0286581D01*
Y0286470D01*
X0022587Y0286414D01*
X0022531Y0286359D01*
X0022476D01*
X0021982Y0286414D02*
X0022038Y0286359D01*
X0022149D01*
X0022204Y0286414D01*
Y0286470D01*
X0022093Y0286581D01*
X0022204Y0286692D01*
X0021982D01*
X0021794Y0286359D02*
X0021683D01*
X0021739D02*
Y0286692D01*
X0021683Y0286637D01*
X0021440Y0286414D02*
X0021412Y0286359D01*
X0021246D01*
X0021218Y0286414D01*
Y0286637D01*
X0021246Y0286692D01*
X0021412D01*
X0021440Y0286637D01*
X0000537Y0320206D02*
X0000370D01*
X0000342Y0320261D01*
Y0320317D01*
X0000370Y0320372D01*
X0000537D01*
X0000564Y0320317D01*
Y0320261D01*
X0000453Y0320039D01*
X0000154D02*
X-0000068D01*
X0000154Y0320261D01*
Y0320317D01*
X0000127Y0320372D01*
X-0000040D01*
X-0000068Y0320317D01*
X-0000256Y0320039D02*
X-0000367D01*
X-0000311D02*
Y0320372D01*
X-0000367Y0320317D01*
X-0000610Y0320094D02*
X-0000638Y0320039D01*
X-0000804D01*
X-0000832Y0320094D01*
Y0320317D01*
X-0000804Y0320372D01*
X-0000638D01*
X-0000610Y0320317D01*
X0017777Y0318316D02*
X0017804Y0318371D01*
Y0318427D01*
X0017777Y0318482D01*
X0017610D01*
X0017582Y0318427D01*
Y0318371D01*
X0017610Y0318316D01*
X0017777D01*
X0017804Y0318260D01*
Y0318204D01*
X0017777Y0318149D01*
X0017610D01*
X0017582Y0318204D01*
Y0318260D01*
X0017610Y0318316D01*
X0017394Y0318149D02*
X0017172D01*
X0017394Y0318371D01*
Y0318427D01*
X0017367Y0318482D01*
X0017200D01*
X0017172Y0318427D01*
X0016984Y0318149D02*
X0016873D01*
X0016929D02*
Y0318482D01*
X0016873Y0318427D01*
X0016630Y0318204D02*
X0016602Y0318149D01*
X0016436D01*
X0016408Y0318204D01*
Y0318427D01*
X0016436Y0318482D01*
X0016602D01*
X0016630Y0318427D01*
X0003249Y0336362D02*
Y0336529D01*
X0003305Y0336557D01*
X0003360D01*
X0003416Y0336529D01*
Y0336362D01*
X0003360Y0336334D01*
X0003305D01*
X0003083Y0336446D01*
Y0336939D02*
X0003416D01*
X0003083Y0336967D02*
Y0336800D01*
X0003194Y0336744D01*
X0003305D01*
X0003416Y0336800D01*
Y0336967D01*
X0004749Y0333684D02*
X0004805Y0333657D01*
X0004860D01*
X0004916Y0333684D01*
Y0333851D01*
X0004860Y0333879D01*
X0004805D01*
X0004749Y0333851D01*
Y0333684D01*
X0004694Y0333657D01*
X0004638D01*
X0004583Y0333684D01*
Y0333851D01*
X0004638Y0333879D01*
X0004694D01*
X0004749Y0333851D01*
X0004583Y0334067D02*
Y0334178D01*
Y0334122D02*
X0004916D01*
X0004860Y0334178D01*
X0004583Y0334421D02*
Y0334532D01*
Y0334477D02*
X0004916D01*
X0004860Y0334532D01*
X0004638Y0334775D02*
X0004583Y0334803D01*
Y0334970D01*
X0004638Y0334998D01*
X0004860D01*
X0004916Y0334970D01*
Y0334803D01*
X0004860Y0334775D01*
X0076766Y0344183D02*
X0076654D01*
X0076710D02*
Y0344516D01*
X0076654Y0344460D01*
X0006117Y0315513D02*
X0006283Y0315846D01*
X0006061D01*
X0005873Y0315513D02*
X0005762D01*
X0005818D02*
Y0315846D01*
X0005762Y0315790D01*
X0005519Y0315513D02*
X0005408D01*
X0005463D02*
Y0315846D01*
X0005408Y0315790D01*
X0005164Y0315568D02*
X0005137Y0315513D01*
X0004970D01*
X0004942Y0315568D01*
Y0315790D01*
X0004970Y0315846D01*
X0005137D01*
X0005164Y0315790D01*
X0012529Y0315849D02*
X0012696D01*
X0012723Y0315794D01*
Y0315738D01*
X0012696Y0315683D01*
X0012529D01*
X0012501Y0315738D01*
Y0315794D01*
X0012612Y0316016D01*
X0012313Y0315683D02*
X0012202D01*
X0012258D02*
Y0316016D01*
X0012202Y0315960D01*
X0011959Y0315683D02*
X0011848D01*
X0011903D02*
Y0316016D01*
X0011848Y0315960D01*
X0011604Y0315738D02*
X0011577Y0315683D01*
X0011410D01*
X0011382Y0315738D01*
Y0315960D01*
X0011410Y0316016D01*
X0011577D01*
X0011604Y0315960D01*
X0006060Y0312494D02*
X0005838D01*
X0005949Y0312716D01*
X0006004D01*
Y0312383D01*
X0005650D02*
X0005539D01*
X0005594D02*
Y0312716D01*
X0005539Y0312660D01*
X0005101Y0312383D02*
Y0312716D01*
X0005073Y0312383D02*
X0005240D01*
X0005295Y0312494D01*
Y0312605D01*
X0005240Y0312716D01*
X0005073D01*
X0010563Y0290988D02*
X0010590Y0290933D01*
X0010757D01*
X0010785Y0290988D01*
Y0291099D01*
X0010729Y0291155D01*
X0010563D01*
Y0291266D01*
X0010785D01*
X0010375Y0290933D02*
X0010264D01*
X0010319D02*
Y0291266D01*
X0010264Y0291210D01*
X0010020Y0291266D02*
Y0290988D01*
X0009993Y0290933D01*
X0009826D01*
X0009798Y0290988D01*
Y0291266D01*
X0019195Y0291064D02*
X0018973D01*
X0019084Y0291286D01*
X0019139D01*
Y0290953D01*
X0018785D02*
X0018674D01*
X0018729D02*
Y0291286D01*
X0018674Y0291230D01*
X0018430Y0291286D02*
Y0291008D01*
X0018403Y0290953D01*
X0018236D01*
X0018208Y0291008D01*
Y0291286D01*
X-0000071Y0336033D02*
Y0336200D01*
X-0000015Y0336227D01*
X0000040D01*
X0000096Y0336200D01*
Y0336033D01*
X0000040Y0336005D01*
X-0000015D01*
X-0000237Y0336116D01*
Y0336415D02*
Y0336526D01*
Y0336471D02*
X0000096D01*
X0000040Y0336526D01*
X0000096Y0336769D02*
X-0000182D01*
X-0000237Y0336797D01*
Y0336964D01*
X-0000182Y0336992D01*
X0000096D01*
X0023007Y0291921D02*
X0023034Y0291865D01*
X0023201D01*
X0023229Y0291921D01*
Y0292032D01*
X0023173Y0292087D01*
X0023007D01*
Y0292199D01*
X0023229D01*
X0022819Y0291865D02*
X0022708D01*
X0022763D02*
Y0292199D01*
X0022708Y0292143D01*
X0022270Y0291865D02*
Y0292199D01*
X0022242Y0291865D02*
X0022409D01*
X0022464Y0291976D01*
Y0292087D01*
X0022409Y0292199D01*
X0022242D01*
X0029318Y0285513D02*
X0029484Y0285846D01*
X0029262D01*
X0029074Y0285513D02*
X0028852D01*
X0029074Y0285735D01*
Y0285790D01*
X0029047Y0285846D01*
X0028880D01*
X0028852Y0285790D01*
X0028664Y0285568D02*
X0028637Y0285513D01*
X0028470D01*
X0028442Y0285568D01*
Y0285790D01*
X0028470Y0285846D01*
X0028637D01*
X0028664Y0285790D01*
X0057887Y0342693D02*
X0057831Y0342637D01*
Y0342526D01*
X0057887Y0342470D01*
X0057942D01*
X0058053Y0342581D01*
X0058164Y0342470D01*
Y0342693D01*
X0057998Y0342936D02*
Y0343103D01*
X0057831D02*
X0058164D01*
Y0342880D01*
X0064057Y0342440D02*
Y0342663D01*
X0064280Y0342440D01*
X0064335D01*
X0064391Y0342468D01*
Y0342635D01*
X0064335Y0342663D01*
X0064224Y0342906D02*
Y0343073D01*
X0064057D02*
X0064391D01*
Y0342850D01*
X-0014649Y0307594D02*
Y0307761D01*
X-0014705Y0307817D01*
X-0014760D01*
X-0014816Y0307761D01*
Y0307594D01*
X-0014483D01*
X-0014760Y0307407D02*
X-0014816Y0307379D01*
Y0307212D01*
X-0014760Y0307184D01*
X-0014705D01*
X-0014649Y0307212D01*
Y0307379D01*
X-0014594Y0307407D01*
X-0014538D01*
X-0014483Y0307379D01*
Y0307212D01*
X-0014538Y0307184D01*
X-0014483Y0306997D02*
Y0306885D01*
Y0306941D02*
X-0014816D01*
Y0306997D02*
Y0306885D01*
X-0014372Y0306642D02*
Y0306420D01*
X-0014483Y0306232D02*
Y0306038D01*
X-0014816D01*
X-0014594Y0305850D02*
Y0305628D01*
X-0014483Y0305850D02*
X-0014649D01*
X-0014816Y0305767D01*
Y0305711D01*
X-0014649Y0305628D01*
X-0014483D01*
Y0305440D02*
Y0305329D01*
Y0305384D02*
X-0014816D01*
Y0305440D02*
Y0305329D01*
X-0014649Y0305002D02*
X-0014483Y0305085D01*
X-0014649Y0304863D02*
Y0305030D01*
X-0014705Y0305085D01*
X-0014760D01*
X-0014816Y0305030D01*
Y0304863D01*
X-0014483D01*
X-0014649Y0304620D02*
Y0304453D01*
X-0014483Y0304675D02*
Y0304453D01*
X-0014816D01*
Y0304675D01*
X-0014760Y0304265D02*
X-0014816Y0304238D01*
Y0304071D01*
X-0014760Y0304043D01*
X-0014705D01*
X-0014649Y0304071D01*
Y0304238D01*
X-0014594Y0304265D01*
X-0014538D01*
X-0014483Y0304238D01*
Y0304071D01*
X-0014538Y0304043D01*
X0063536Y0305533D02*
X0063424D01*
X0063480D02*
Y0305866D01*
X0063424Y0305810D01*
X-0004672Y0290694D02*
X-0004895D01*
X-0004783Y0290916D01*
X-0004728D01*
Y0290583D01*
X-0005277Y0290694D02*
Y0290638D01*
X-0005249Y0290583D01*
X-0005138D01*
X-0005110Y0290638D01*
Y0290916D01*
X-0005082D02*
X-0005193D01*
X-0007144Y0289633D02*
X-0007255D01*
X-0007200D02*
Y0289966D01*
X-0007255Y0289910D01*
X-0002693Y0289489D02*
X-0002860D01*
X-0002888Y0289545D01*
Y0289600D01*
X-0002860Y0289656D01*
X-0002693D01*
X-0002665Y0289600D01*
Y0289545D01*
X-0002777Y0289323D01*
X-0003298Y0289378D02*
X-0003242Y0289323D01*
X-0003131D01*
X-0003075Y0289378D01*
Y0289434D01*
X-0003187Y0289545D01*
X-0003075Y0289656D01*
X-0003298D01*
X-0003569Y0289489D02*
X-0003485Y0289323D01*
X-0003708Y0289489D02*
X-0003541D01*
X-0003485Y0289545D01*
Y0289600D01*
X-0003541Y0289656D01*
X-0003708D01*
Y0289323D01*
X0000783Y0312088D02*
X0001116Y0311921D01*
Y0312143D01*
X0000783Y0312331D02*
Y0312553D01*
X0001005Y0312331D01*
X0001060D01*
X0001116Y0312359D01*
Y0312526D01*
X0001060Y0312553D01*
X0000783Y0312741D02*
Y0312852D01*
Y0312797D02*
X0001116D01*
X0001060Y0312852D01*
X0000838Y0313095D02*
X0000783Y0313123D01*
Y0313290D01*
X0000838Y0313318D01*
X0001060D01*
X0001116Y0313290D01*
Y0313123D01*
X0001060Y0313095D01*
X-0000351Y0314053D02*
X-0000295Y0314025D01*
X-0000239D01*
X-0000184Y0314053D01*
Y0314220D01*
X-0000239Y0314248D01*
X-0000295D01*
X-0000351Y0314220D01*
Y0314053D01*
X-0000406Y0314025D01*
X-0000462D01*
X-0000517Y0314053D01*
Y0314220D01*
X-0000462Y0314248D01*
X-0000406D01*
X-0000351Y0314220D01*
X-0000462Y0314658D02*
X-0000517Y0314602D01*
Y0314491D01*
X-0000462Y0314435D01*
X-0000406D01*
X-0000295Y0314547D01*
X-0000184Y0314435D01*
Y0314658D01*
X-0000351Y0314929D02*
X-0000517Y0314845D01*
X-0000351Y0315068D02*
Y0314901D01*
X-0000295Y0314845D01*
X-0000239D01*
X-0000184Y0314901D01*
Y0315068D01*
X-0000517D01*
X0075192Y0329142D02*
X0075025Y0328809D01*
X0075248D01*
X0075658Y0329087D02*
X0075602Y0329142D01*
X0075491D01*
X0075435Y0329087D01*
Y0329031D01*
X0075547Y0328920D01*
X0075435Y0328809D01*
X0075658D01*
X0075929Y0328976D02*
X0075845Y0329142D01*
X0076068Y0328976D02*
X0075901D01*
X0075845Y0328920D01*
Y0328864D01*
X0075901Y0328809D01*
X0076068D01*
Y0329142D01*
X-0029217Y0288255D02*
X-0029050Y0288588D01*
X-0029272D01*
X-0029460Y0288255D02*
X-0029571D01*
X-0029516D02*
Y0288588D01*
X-0029571Y0288533D01*
X-0029898Y0288422D02*
X-0029814Y0288255D01*
X-0030037Y0288422D02*
X-0029870D01*
X-0029814Y0288477D01*
Y0288533D01*
X-0029870Y0288588D01*
X-0030037D01*
Y0288255D01*
X0074381Y0327597D02*
X0074548D01*
X0074575Y0327541D01*
Y0327486D01*
X0074548Y0327430D01*
X0074381D01*
X0074353Y0327486D01*
Y0327541D01*
X0074464Y0327763D01*
X0073943Y0327486D02*
X0073999Y0327430D01*
X0074110D01*
X0074165Y0327486D01*
Y0327541D01*
X0074054Y0327652D01*
X0074165Y0327763D01*
X0073943D01*
X0073672Y0327597D02*
X0073755Y0327430D01*
X0073533Y0327597D02*
X0073700D01*
X0073755Y0327652D01*
Y0327708D01*
X0073700Y0327763D01*
X0073533D01*
Y0327430D01*
X0069307Y0299785D02*
Y0299563D01*
X0069085Y0299785D01*
X0069029D01*
X0068974Y0299757D01*
Y0299590D01*
X0069029Y0299563D01*
X0069307Y0299180D02*
X0069252Y0299153D01*
X0069029D01*
X0068974Y0299180D01*
Y0299347D01*
X0069029Y0299375D01*
X0069252D01*
X0069307Y0299347D01*
Y0299180D01*
X0069029Y0298965D02*
X0068974Y0298937D01*
Y0298770D01*
X0069029Y0298743D01*
X0069085D01*
X0069141Y0298770D01*
Y0298937D01*
X0069196Y0298965D01*
X0069252D01*
X0069307Y0298937D01*
Y0298770D01*
X0069252Y0298743D01*
X0069307Y0298555D02*
Y0298444D01*
Y0298499D02*
X0068974D01*
Y0298555D02*
Y0298444D01*
X0063904Y0303241D02*
X0064070D01*
X0064098Y0303185D01*
Y0303130D01*
X0064070Y0303074D01*
X0063904D01*
X0063876Y0303130D01*
Y0303185D01*
X0063987Y0303408D01*
X0063688Y0303074D02*
X0063577D01*
X0063633D02*
Y0303408D01*
X0063577Y0303352D01*
X0063250Y0303241D02*
X0063334Y0303074D01*
X0063112Y0303241D02*
X0063278D01*
X0063334Y0303297D01*
Y0303352D01*
X0063278Y0303408D01*
X0063112D01*
Y0303074D01*
X0069718Y0305563D02*
X0069663Y0305536D01*
Y0305369D01*
X0069718Y0305341D01*
X0069829D01*
X0069885Y0305397D01*
Y0305563D01*
X0069996D01*
Y0305341D01*
X0069663Y0305751D02*
Y0305862D01*
Y0305807D02*
X0069996D01*
X0069940Y0305862D01*
X0069829Y0306189D02*
X0069663Y0306105D01*
X0069829Y0306328D02*
Y0306161D01*
X0069885Y0306105D01*
X0069940D01*
X0069996Y0306161D01*
Y0306328D01*
X0069663D01*
X0002586Y0300240D02*
X0002614Y0300296D01*
Y0300351D01*
X0002586Y0300407D01*
X0002419D01*
X0002391Y0300351D01*
Y0300296D01*
X0002419Y0300240D01*
X0002586D01*
X0002614Y0300184D01*
Y0300129D01*
X0002586Y0300073D01*
X0002419D01*
X0002391Y0300129D01*
Y0300184D01*
X0002419Y0300240D01*
X0002009Y0300073D02*
Y0300407D01*
X0001981Y0300073D02*
X0002148D01*
X0002204Y0300184D01*
Y0300296D01*
X0002148Y0300407D01*
X0001981D01*
X0009172Y0282683D02*
X0009116Y0282738D01*
X0009088Y0282794D01*
Y0282905D01*
X0009116Y0282960D01*
X0009172Y0283016D01*
X0009227D01*
X0009283Y0282960D01*
X0009310Y0282905D01*
Y0282794D01*
X0009283Y0282738D01*
X0009227Y0282683D01*
X0009172D01*
X0008678Y0282738D02*
X0008734Y0282683D01*
X0008845D01*
X0008900Y0282738D01*
Y0282794D01*
X0008789Y0282905D01*
X0008900Y0283016D01*
X0008678D01*
X0008407Y0282849D02*
X0008490Y0282683D01*
X0008268Y0282849D02*
X0008435D01*
X0008490Y0282905D01*
Y0282960D01*
X0008435Y0283016D01*
X0008268D01*
Y0282683D01*
X-0003971Y0306034D02*
X-0004026Y0306090D01*
X-0004054Y0306145D01*
Y0306257D01*
X-0004026Y0306312D01*
X-0003971Y0306368D01*
X-0003915D01*
X-0003860Y0306312D01*
X-0003832Y0306257D01*
Y0306145D01*
X-0003860Y0306090D01*
X-0003915Y0306034D01*
X-0003971D01*
X-0004242D02*
X-0004353D01*
X-0004297D02*
Y0306368D01*
X-0004353Y0306312D01*
X-0004679Y0306201D02*
X-0004596Y0306034D01*
X-0004818Y0306201D02*
X-0004652D01*
X-0004596Y0306257D01*
Y0306312D01*
X-0004652Y0306368D01*
X-0004818D01*
Y0306034D01*
X-0023902Y0288812D02*
X-0023874Y0288867D01*
Y0288923D01*
X-0023902Y0288978D01*
X-0024069D01*
X-0024097Y0288923D01*
Y0288867D01*
X-0024069Y0288812D01*
X-0023902D01*
X-0023874Y0288756D01*
Y0288701D01*
X-0023902Y0288645D01*
X-0024069D01*
X-0024097Y0288701D01*
Y0288756D01*
X-0024069Y0288812D01*
X-0024284Y0288701D02*
X-0024312Y0288645D01*
X-0024479D01*
X-0024507Y0288701D01*
Y0288923D01*
X-0024479Y0288978D01*
X-0024312D01*
X-0024284Y0288923D01*
X-0022879Y0326165D02*
X-0022935Y0326221D01*
X-0022962Y0326276D01*
Y0326387D01*
X-0022935Y0326443D01*
X-0022879Y0326498D01*
X-0022823D01*
X-0022768Y0326443D01*
X-0022740Y0326387D01*
Y0326276D01*
X-0022768Y0326221D01*
X-0022823Y0326165D01*
X-0022879D01*
X-0023150D02*
X-0023261D01*
X-0023206D02*
Y0326498D01*
X-0023261Y0326443D01*
X-0023504Y0326221D02*
X-0023532Y0326165D01*
X-0023699D01*
X-0023727Y0326221D01*
Y0326443D01*
X-0023699Y0326498D01*
X-0023532D01*
X-0023504Y0326443D01*
X0006487Y0284939D02*
X0006320D01*
X0006292Y0284995D01*
Y0285050D01*
X0006320Y0285106D01*
X0006487D01*
X0006514Y0285050D01*
Y0284995D01*
X0006403Y0284773D01*
X0006104D02*
X0005882D01*
X0006104Y0284995D01*
Y0285050D01*
X0006077Y0285106D01*
X0005910D01*
X0005882Y0285050D01*
X0005611Y0284939D02*
X0005694Y0284773D01*
X0005472Y0284939D02*
X0005639D01*
X0005694Y0284995D01*
Y0285050D01*
X0005639Y0285106D01*
X0005472D01*
Y0284773D01*
X-0023601Y0282335D02*
X-0023434Y0282668D01*
X-0023657D01*
X-0023844Y0282391D02*
X-0023872Y0282335D01*
X-0024039D01*
X-0024067Y0282391D01*
Y0282613D01*
X-0024039Y0282668D01*
X-0023872D01*
X-0023844Y0282613D01*
X0003364Y0309830D02*
X0003698Y0309664D01*
Y0309886D01*
Y0310074D02*
X0003420D01*
X0003364Y0310102D01*
Y0310268D01*
X0003420Y0310296D01*
X0003698D01*
X-0009372Y0281873D02*
X-0009205Y0282206D01*
X-0009428D01*
X-0009615Y0281873D02*
X-0009838D01*
X-0009615Y0282095D01*
Y0282150D01*
X-0009643Y0282206D01*
X-0009810D01*
X-0009838Y0282150D01*
X-0010109Y0282039D02*
X-0010025Y0281873D01*
X-0010248Y0282039D02*
X-0010081D01*
X-0010025Y0282095D01*
Y0282150D01*
X-0010081Y0282206D01*
X-0010248D01*
Y0281873D01*
X0035712Y0288812D02*
X0035767Y0288840D01*
Y0289007D01*
X0035712Y0289034D01*
X0035601D01*
X0035545Y0288979D01*
Y0288812D01*
X0035434D01*
Y0289034D01*
X0035712Y0288402D02*
X0035767Y0288458D01*
Y0288569D01*
X0035712Y0288624D01*
X0035656D01*
X0035545Y0288513D01*
X0035434Y0288624D01*
Y0288402D01*
X0035601Y0288131D02*
X0035767Y0288214D01*
X0035601Y0287992D02*
Y0288159D01*
X0035545Y0288214D01*
X0035489D01*
X0035434Y0288159D01*
Y0287992D01*
X0035767D01*
X0065305Y0309382D02*
Y0309493D01*
Y0309437D02*
X0065638D01*
X0065583Y0309493D01*
X0065305Y0309931D02*
X0065361Y0309958D01*
X0065583D01*
X0065638Y0309931D01*
Y0309764D01*
X0065583Y0309736D01*
X0065361D01*
X0065305Y0309764D01*
Y0309931D01*
X0065583Y0310146D02*
X0065638Y0310174D01*
Y0310341D01*
X0065583Y0310368D01*
X0065527D01*
X0065472Y0310341D01*
Y0310174D01*
X0065416Y0310146D01*
X0065361D01*
X0065305Y0310174D01*
Y0310341D01*
X0065361Y0310368D01*
X0065305Y0310556D02*
Y0310667D01*
Y0310612D02*
X0065638D01*
Y0310556D02*
Y0310667D01*
X0006536Y0306071D02*
X0006564Y0306127D01*
Y0306182D01*
X0006536Y0306238D01*
X0006369D01*
X0006342Y0306182D01*
Y0306127D01*
X0006369Y0306071D01*
X0006536D01*
X0006564Y0306015D01*
Y0305960D01*
X0006536Y0305904D01*
X0006369D01*
X0006342Y0305960D01*
Y0306015D01*
X0006369Y0306071D01*
X0006070D02*
X0006154Y0305904D01*
X0005932Y0306071D02*
X0006098D01*
X0006154Y0306127D01*
Y0306182D01*
X0006098Y0306238D01*
X0005932D01*
Y0305904D01*
X0030791Y0290393D02*
X0030568D01*
X0030791Y0290616D01*
Y0290671D01*
X0030763Y0290727D01*
X0030596D01*
X0030568Y0290671D01*
X0030381Y0290393D02*
X0030158D01*
X0030381Y0290616D01*
Y0290671D01*
X0030353Y0290727D01*
X0030186D01*
X0030158Y0290671D01*
X0029971Y0290393D02*
X0029859D01*
X0029915D02*
Y0290727D01*
X0029859Y0290671D01*
X0029616Y0290449D02*
X0029588Y0290393D01*
X0029422D01*
X0029394Y0290449D01*
Y0290671D01*
X0029422Y0290727D01*
X0029588D01*
X0029616Y0290671D01*
X-0023745Y0285020D02*
Y0284909D01*
Y0284964D02*
X-0024078D01*
X-0024023Y0284909D01*
X-0023745Y0284554D02*
X-0023912D01*
X-0024078Y0284665D02*
X-0023912Y0284582D01*
Y0284527D01*
X-0024078Y0284443D01*
X0041921Y0285446D02*
X0041977Y0285501D01*
Y0285613D01*
X0041921Y0285668D01*
X0041865D01*
X0041754Y0285557D01*
X0041643Y0285668D01*
Y0285446D01*
X0041977Y0285258D02*
Y0285147D01*
Y0285203D02*
X0041643D01*
X0041699Y0285147D01*
X0041977Y0284709D02*
X0041643D01*
X0041977Y0284681D02*
Y0284848D01*
X0041865Y0284904D01*
X0041754D01*
X0041643Y0284848D01*
Y0284681D01*
X0042711Y0296610D02*
X0042577D01*
X0042644D02*
Y0297010D01*
X0042577Y0296943D01*
X0042317D02*
X0042284Y0297010D01*
X0042084D01*
X0042051Y0296943D01*
Y0296877D01*
X0042084Y0296810D01*
X0042284D01*
X0042317Y0296743D01*
Y0296677D01*
X0042284Y0296610D01*
X0042084D01*
X0042051Y0296677D01*
X0041857Y0296477D02*
X0041591D01*
X0041397Y0296610D02*
X0041264D01*
X0041331D02*
Y0297010D01*
X0041264Y0296943D01*
X0040871Y0296610D02*
Y0296810D01*
X0041004Y0297010D02*
X0040904Y0296810D01*
X0040837D01*
X0040737Y0297010D01*
X0040544Y0296610D02*
X0040311D01*
Y0297010D01*
X0040017Y0296810D02*
X0040117Y0296610D01*
X0039851Y0296810D02*
X0040051D01*
X0040117Y0296877D01*
Y0296943D01*
X0040051Y0297010D01*
X0039851D01*
Y0296610D01*
X0030059Y0284629D02*
Y0284796D01*
X0030114Y0284824D01*
X0030170D01*
X0030226Y0284796D01*
Y0284629D01*
X0030170Y0284602D01*
X0030114D01*
X0029892Y0284713D01*
X0030226Y0284414D02*
Y0284192D01*
X0030003Y0284414D01*
X0029948D01*
X0029892Y0284386D01*
Y0284219D01*
X0029948Y0284192D01*
X0030170Y0284004D02*
X0030226Y0283976D01*
Y0283809D01*
X0030170Y0283782D01*
X0029948D01*
X0029892Y0283809D01*
Y0283976D01*
X0029948Y0284004D01*
X0038685Y0287929D02*
Y0287707D01*
X0038463Y0287929D01*
X0038407D01*
X0038351Y0287901D01*
Y0287734D01*
X0038407Y0287707D01*
X0038685Y0287519D02*
Y0287408D01*
Y0287463D02*
X0038351D01*
X0038407Y0287408D01*
X0038685Y0286970D02*
X0038351D01*
X0038685Y0286942D02*
Y0287109D01*
X0038574Y0287164D01*
X0038463D01*
X0038351Y0287109D01*
Y0286942D01*
X-0031078Y0303194D02*
X-0031023Y0303166D01*
Y0303000D01*
X-0031078Y0302972D01*
X-0031300D01*
X-0031356Y0303000D01*
Y0303166D01*
X-0031300Y0303194D01*
X-0031078Y0302784D02*
X-0031023Y0302756D01*
Y0302590D01*
X-0031078Y0302562D01*
X-0031300D01*
X-0031356Y0302590D01*
Y0302756D01*
X-0031300Y0302784D01*
X-0031243Y0309454D02*
Y0309232D01*
X-0031465Y0309454D01*
X-0031520D01*
X-0031576Y0309426D01*
Y0309260D01*
X-0031520Y0309232D01*
X-0031409Y0309044D02*
Y0308822D01*
X-0031243Y0309044D02*
X-0031576D01*
X-0031243Y0308822D02*
X-0031576D01*
X-0031243Y0308523D02*
X-0031576D01*
Y0308634D02*
Y0308412D01*
X-0031523Y0314799D02*
Y0314688D01*
Y0314743D02*
X-0031856D01*
X-0031800Y0314688D01*
X-0031689Y0314444D02*
Y0314222D01*
X-0031523Y0314444D02*
X-0031856D01*
X-0031523Y0314222D02*
X-0031856D01*
X-0031523Y0313923D02*
X-0031856D01*
Y0314034D02*
Y0313812D01*
X0039763Y0291093D02*
X0039819Y0291038D01*
X0039930D01*
X0039985Y0291093D01*
Y0291149D01*
X0039874Y0291260D01*
X0039985Y0291371D01*
X0039763D01*
X0039464Y0291149D02*
X0039575Y0291038D01*
X0039353Y0291093D02*
X0039381Y0291038D01*
X0039492D01*
X0039520Y0291093D01*
X0039575Y0291149D01*
Y0291315D01*
X0039548Y0291371D01*
X0039381D01*
X0039353Y0291315D01*
Y0291093D01*
X-0031399Y0321069D02*
Y0320902D01*
X-0031233D02*
X-0031566D01*
Y0321124D01*
X-0031233Y0320714D02*
X-0031566D01*
X-0031510Y0320659D01*
X-0031399Y0320603D01*
X-0031510Y0320548D01*
X-0031566Y0320492D01*
X-0031233D01*
X-0029669Y0338191D02*
X-0029503Y0338274D01*
X-0029669Y0338052D02*
Y0338219D01*
X-0029725Y0338274D01*
X-0029780D01*
X-0029836Y0338219D01*
Y0338052D01*
X-0029503D01*
X-0029669Y0337809D02*
Y0337642D01*
X-0029503Y0337864D02*
Y0337642D01*
X-0029836D01*
Y0337864D01*
Y0337454D02*
X-0029558D01*
X-0029503Y0337426D01*
X-0029669Y0337343D01*
X-0029725D02*
X-0029669D01*
X-0029503Y0337260D01*
X-0029558Y0337232D01*
X-0029836D01*
X-0029503Y0336850D02*
X-0029558Y0336822D01*
X-0029780D01*
X-0029836Y0336850D01*
Y0337016D01*
X-0029780Y0337044D01*
X-0029558D01*
X-0029503Y0337016D01*
Y0336850D01*
X-0029669Y0336412D02*
Y0336579D01*
X-0029725Y0336634D01*
X-0029780D01*
X-0029836Y0336579D01*
Y0336412D01*
X-0029503D01*
X0056568Y0300485D02*
X0056734Y0300819D01*
X0056512D01*
X0056130Y0300485D02*
Y0300819D01*
X0056102Y0300485D02*
X0056269D01*
X0056324Y0300596D01*
Y0300707D01*
X0056269Y0300819D01*
X0056102D01*
X0063664Y0308901D02*
Y0309123D01*
X0063886Y0309012D01*
Y0308957D01*
X0063553D01*
Y0309311D02*
Y0309422D01*
Y0309367D02*
X0063886D01*
X0063830Y0309422D01*
X0063719Y0309749D02*
X0063553Y0309665D01*
X0063719Y0309888D02*
Y0309721D01*
X0063775Y0309665D01*
X0063830D01*
X0063886Y0309721D01*
Y0309888D01*
X0063553D01*
X-0010236Y0313705D02*
X-0010347D01*
X-0010292D02*
Y0314038D01*
X-0010347Y0313983D01*
X-0010674Y0313872D02*
X-0010590Y0313705D01*
X-0010813Y0313872D02*
X-0010646D01*
X-0010590Y0313927D01*
Y0313983D01*
X-0010646Y0314038D01*
X-0010813D01*
Y0313705D01*
X-0011000Y0313816D02*
X-0011223D01*
X-0011000Y0313705D02*
Y0313872D01*
X-0011084Y0314038D01*
X-0011139D01*
X-0011223Y0313872D01*
Y0313705D01*
X-0011410Y0314038D02*
Y0313927D01*
X-0011522Y0313705D01*
X-0011633Y0313927D01*
Y0314038D01*
X0026423Y0288688D02*
X0026478Y0288633D01*
X0026589D01*
X0026645Y0288688D01*
Y0288744D01*
X0026534Y0288855D01*
X0026645Y0288966D01*
X0026423D01*
X0026235Y0288633D02*
X0026124D01*
X0026179D02*
Y0288966D01*
X0026124Y0288910D01*
X0025880Y0288966D02*
Y0288688D01*
X0025853Y0288633D01*
X0025686D01*
X0025658Y0288688D01*
Y0288966D01*
X-0010196Y0291363D02*
X-0010418D01*
X-0010196Y0291586D01*
Y0291641D01*
X-0010224Y0291697D01*
X-0010391D01*
X-0010418Y0291641D01*
X-0010606Y0291697D02*
Y0291419D01*
X-0010634Y0291363D01*
X-0010801D01*
X-0010828Y0291419D01*
Y0291697D01*
X0039617Y0292308D02*
X0039644Y0292253D01*
X0039811D01*
X0039839Y0292308D01*
Y0292419D01*
X0039783Y0292475D01*
X0039617D01*
Y0292586D01*
X0039839D01*
X0039429Y0292253D02*
X0039207D01*
X0039429Y0292475D01*
Y0292530D01*
X0039401Y0292586D01*
X0039234D01*
X0039207Y0292530D01*
X0039019Y0292253D02*
X0038908D01*
X0038963D02*
Y0292586D01*
X0038908Y0292530D01*
X0038664Y0292308D02*
X0038637Y0292253D01*
X0038470D01*
X0038442Y0292308D01*
Y0292530D01*
X0038470Y0292586D01*
X0038637D01*
X0038664Y0292530D01*
X0041741Y0283269D02*
X0041686Y0283241D01*
X0041463D01*
X0041408Y0283269D01*
Y0283436D01*
X0041463Y0283463D01*
X0041686D01*
X0041741Y0283436D01*
Y0283269D01*
X0041574Y0282970D02*
X0041741Y0283053D01*
X0041574Y0282831D02*
Y0282998D01*
X0041519Y0283053D01*
X0041463D01*
X0041408Y0282998D01*
Y0282831D01*
X0041741D01*
X0041574Y0282588D02*
Y0282421D01*
X0041741Y0282643D02*
Y0282421D01*
X0041408D01*
Y0282643D01*
X0041741Y0282233D02*
Y0282067D01*
X0041408Y0282233D01*
Y0282067D01*
X0041574Y0281768D02*
X0041741Y0281851D01*
X0041574Y0281629D02*
Y0281796D01*
X0041519Y0281851D01*
X0041463D01*
X0041408Y0281796D01*
Y0281629D01*
X0041741D01*
X0038348Y0283760D02*
X0038681D01*
X0038626Y0283704D01*
X0038403Y0283593D01*
X0038348Y0283538D01*
X0038681D01*
X0038570Y0283350D02*
Y0283128D01*
X0038681Y0283350D02*
X0038514D01*
X0038348Y0283267D01*
Y0283211D01*
X0038514Y0283128D01*
X0038681D01*
X0038514Y0282718D02*
Y0282884D01*
X0038459Y0282940D01*
X0038403D01*
X0038348Y0282884D01*
Y0282718D01*
X0038681D01*
X0038403Y0282530D02*
X0038348Y0282502D01*
Y0282336D01*
X0038403Y0282308D01*
X0038459D01*
X0038514Y0282336D01*
Y0282502D01*
X0038570Y0282530D01*
X0038626D01*
X0038681Y0282502D01*
Y0282336D01*
X0038626Y0282308D01*
X0038514Y0282037D02*
X0038681Y0282120D01*
X0038514Y0281898D02*
Y0282064D01*
X0038459Y0282120D01*
X0038403D01*
X0038348Y0282064D01*
Y0281898D01*
X0038681D01*
X-0012741Y0295197D02*
Y0295363D01*
X-0012685Y0295391D01*
X-0012630D01*
X-0012574Y0295363D01*
Y0295197D01*
X-0012630Y0295169D01*
X-0012685D01*
X-0012907Y0295280D01*
X-0013847Y0304504D02*
Y0304615D01*
Y0304560D02*
X-0013514D01*
X-0013570Y0304615D01*
X-0012192Y0299383D02*
X-0012303D01*
X-0012247D02*
Y0299717D01*
X-0012303Y0299661D01*
X-0012629Y0299550D02*
X-0012546Y0299383D01*
X-0012768Y0299550D02*
X-0012602D01*
X-0012546Y0299606D01*
Y0299661D01*
X-0012602Y0299717D01*
X-0012768D01*
Y0299383D01*
X0003208Y0305930D02*
X0003042D01*
X0003014Y0305986D01*
Y0306041D01*
X0003042Y0306097D01*
X0003208D01*
X0003236Y0306041D01*
Y0305986D01*
X0003125Y0305763D01*
X0002743Y0305930D02*
X0002826Y0305763D01*
X0002604Y0305930D02*
X0002771D01*
X0002826Y0305986D01*
Y0306041D01*
X0002771Y0306097D01*
X0002604D01*
Y0305763D01*
X0004993Y0305639D02*
X0005160Y0305972D01*
X0004938D01*
X0004667Y0305806D02*
X0004750Y0305639D01*
X0004528Y0305806D02*
X0004694D01*
X0004750Y0305861D01*
Y0305917D01*
X0004694Y0305972D01*
X0004528D01*
Y0305639D01*
X-0004563Y0279569D02*
X-0004535Y0279625D01*
Y0279680D01*
X-0004563Y0279736D01*
X-0004730D01*
X-0004758Y0279680D01*
Y0279625D01*
X-0004730Y0279569D01*
X-0004563D01*
X-0004535Y0279514D01*
Y0279458D01*
X-0004563Y0279403D01*
X-0004730D01*
X-0004758Y0279458D01*
Y0279514D01*
X-0004730Y0279569D01*
X-0004945Y0279403D02*
X-0005168D01*
X-0004945Y0279625D01*
Y0279680D01*
X-0004973Y0279736D01*
X-0005140D01*
X-0005168Y0279680D01*
X-0005439Y0279569D02*
X-0005355Y0279403D01*
X-0005578Y0279569D02*
X-0005411D01*
X-0005355Y0279625D01*
Y0279680D01*
X-0005411Y0279736D01*
X-0005578D01*
Y0279403D01*
X0039839Y0293474D02*
X0039617D01*
X0039728Y0293696D01*
X0039783D01*
Y0293363D01*
X0039429D02*
X0039207D01*
X0039429Y0293585D01*
Y0293640D01*
X0039401Y0293696D01*
X0039234D01*
X0039207Y0293640D01*
X0039019Y0293363D02*
X0038908D01*
X0038963D02*
Y0293696D01*
X0038908Y0293640D01*
X0038664Y0293418D02*
X0038637Y0293363D01*
X0038470D01*
X0038442Y0293418D01*
Y0293640D01*
X0038470Y0293696D01*
X0038637D01*
X0038664Y0293640D01*
X0042212Y0300431D02*
X0042240Y0300375D01*
X0042407D01*
X0042434Y0300431D01*
Y0300542D01*
X0042379Y0300597D01*
X0042212D01*
Y0300709D01*
X0042434D01*
X0041830Y0300375D02*
Y0300709D01*
X0041802Y0300375D02*
X0041969D01*
X0042024Y0300486D01*
Y0300597D01*
X0041969Y0300709D01*
X0041802D01*
X-0004528Y0284948D02*
X-0004500Y0284893D01*
X-0004333D01*
X-0004305Y0284948D01*
Y0285059D01*
X-0004361Y0285115D01*
X-0004528D01*
Y0285226D01*
X-0004305D01*
X-0004715Y0284893D02*
X-0004938D01*
X-0004715Y0285115D01*
Y0285170D01*
X-0004743Y0285226D01*
X-0004910D01*
X-0004938Y0285170D01*
X-0005209Y0285059D02*
X-0005125Y0284893D01*
X-0005348Y0285059D02*
X-0005181D01*
X-0005125Y0285115D01*
Y0285170D01*
X-0005181Y0285226D01*
X-0005348D01*
Y0284893D01*
X0000155Y0300123D02*
X0000044D01*
X0000099D02*
Y0300457D01*
X0000044Y0300401D01*
X-0000199Y0300123D02*
X-0000310D01*
X-0000255D02*
Y0300457D01*
X-0000310Y0300401D01*
X-0000637Y0300290D02*
X-0000554Y0300123D01*
X-0000776Y0300290D02*
X-0000609D01*
X-0000554Y0300346D01*
Y0300401D01*
X-0000609Y0300457D01*
X-0000776D01*
Y0300123D01*
X-0023978Y0299080D02*
X-0023812D01*
X-0023784Y0299024D01*
Y0298969D01*
X-0023812Y0298913D01*
X-0023978D01*
X-0024006Y0298969D01*
Y0299024D01*
X-0023895Y0299247D01*
X-0024277Y0299080D02*
X-0024194Y0298913D01*
X-0024416Y0299080D02*
X-0024249D01*
X-0024194Y0299136D01*
Y0299191D01*
X-0024249Y0299247D01*
X-0024416D01*
Y0298913D01*
X0015125Y0312460D02*
X0015181Y0312516D01*
X0015236Y0312543D01*
X0015347D01*
X0015403Y0312516D01*
X0015459Y0312460D01*
Y0312404D01*
X0015403Y0312349D01*
X0015347Y0312321D01*
X0015236D01*
X0015181Y0312349D01*
X0015125Y0312404D01*
Y0312460D01*
Y0312731D02*
Y0312842D01*
Y0312787D02*
X0015459D01*
X0015403Y0312842D01*
X0015125Y0313280D02*
X0015459D01*
X0015125Y0313308D02*
Y0313141D01*
X0015236Y0313085D01*
X0015347D01*
X0015459Y0313141D01*
Y0313308D01*
X0025155Y0281461D02*
X0024988D01*
X0024960Y0281517D01*
Y0281572D01*
X0024988Y0281628D01*
X0025155D01*
X0025183Y0281572D01*
Y0281517D01*
X0025072Y0281294D01*
X0024773D02*
X0024662D01*
X0024717D02*
Y0281628D01*
X0024662Y0281572D01*
X0024418Y0281294D02*
X0024307D01*
X0024363D02*
Y0281628D01*
X0024307Y0281572D01*
X0024064Y0281350D02*
X0024036Y0281294D01*
X0023869D01*
X0023842Y0281350D01*
Y0281572D01*
X0023869Y0281628D01*
X0024036D01*
X0024064Y0281572D01*
X0049350Y0300692D02*
X0049517D01*
X0049544Y0300636D01*
Y0300581D01*
X0049517Y0300525D01*
X0049350D01*
X0049322Y0300581D01*
Y0300636D01*
X0049433Y0300859D01*
X0048940Y0300525D02*
Y0300859D01*
X0048912Y0300525D02*
X0049079D01*
X0049134Y0300636D01*
Y0300747D01*
X0049079Y0300859D01*
X0048912D01*
X-0023542Y0304218D02*
X-0023653D01*
X-0023597D02*
Y0304552D01*
X-0023653Y0304496D01*
X-0023896Y0304552D02*
Y0304274D01*
X-0023924Y0304218D01*
X-0024091D01*
X-0024118Y0304274D01*
Y0304552D01*
X-0024811Y0294356D02*
X-0024867Y0294300D01*
Y0294189D01*
X-0024811Y0294134D01*
X-0024755D01*
X-0024644Y0294245D01*
X-0024533Y0294134D01*
Y0294356D01*
X-0024811Y0294544D02*
X-0024867Y0294572D01*
Y0294738D01*
X-0024811Y0294766D01*
X-0024589D01*
X-0024533Y0294738D01*
Y0294572D01*
X-0024589Y0294544D01*
X0016855Y0281655D02*
X0016633D01*
X0016855Y0281877D01*
Y0281933D01*
X0016828Y0281988D01*
X0016661D01*
X0016633Y0281933D01*
X0016445Y0281655D02*
X0016223D01*
X0016445Y0281877D01*
Y0281933D01*
X0016418Y0281988D01*
X0016251D01*
X0016223Y0281933D01*
X0016035Y0281711D02*
X0016008Y0281655D01*
X0015841D01*
X0015813Y0281711D01*
Y0281933D01*
X0015841Y0281988D01*
X0016008D01*
X0016035Y0281933D01*
X-0019374Y0325411D02*
X-0019541D01*
X-0019568Y0325467D01*
Y0325522D01*
X-0019541Y0325578D01*
X-0019374D01*
X-0019346Y0325522D01*
Y0325467D01*
X-0019457Y0325244D01*
X-0019756Y0325300D02*
X-0019784Y0325244D01*
X-0019951D01*
X-0019978Y0325300D01*
Y0325522D01*
X-0019951Y0325578D01*
X-0019784D01*
X-0019756Y0325522D01*
X0000945Y0279889D02*
X0000973Y0279945D01*
Y0280000D01*
X0000945Y0280056D01*
X0000779D01*
X0000751Y0280000D01*
Y0279945D01*
X0000779Y0279889D01*
X0000945D01*
X0000973Y0279833D01*
Y0279778D01*
X0000945Y0279722D01*
X0000779D01*
X0000751Y0279778D01*
Y0279833D01*
X0000779Y0279889D01*
X0000563Y0279722D02*
X0000452D01*
X0000508D02*
Y0280056D01*
X0000452Y0280000D01*
X0000209Y0280056D02*
Y0279778D01*
X0000181Y0279722D01*
X0000014D01*
X-0000013Y0279778D01*
Y0280056D01*
X-0027677Y0308931D02*
X-0027621Y0308875D01*
X-0027510D01*
X-0027454Y0308931D01*
Y0308986D01*
X-0027566Y0309097D01*
X-0027454Y0309208D01*
X-0027677D01*
X-0027948Y0309042D02*
X-0027864Y0308875D01*
X-0028087Y0309042D02*
X-0027920D01*
X-0027864Y0309097D01*
Y0309153D01*
X-0027920Y0309208D01*
X-0028087D01*
Y0308875D01*
X-0013483Y0315236D02*
Y0315124D01*
Y0315180D02*
X-0013816D01*
X-0013760Y0315124D01*
X0022177Y0282999D02*
Y0282888D01*
Y0282943D02*
X0021844D01*
X0021899Y0282888D01*
X0022177Y0282644D02*
Y0282422D01*
X0021955Y0282644D01*
X0021899D01*
X0021844Y0282617D01*
Y0282450D01*
X0021899Y0282422D01*
X0022122Y0282234D02*
X0022177Y0282207D01*
Y0282040D01*
X0022122Y0282012D01*
X0021899D01*
X0021844Y0282040D01*
Y0282207D01*
X0021899Y0282234D01*
X-0027001Y0312368D02*
X-0027223D01*
X-0027112Y0312590D01*
X-0027056D01*
Y0312257D01*
X-0027494Y0312423D02*
X-0027411Y0312257D01*
X-0027633Y0312423D02*
X-0027466D01*
X-0027411Y0312479D01*
Y0312534D01*
X-0027466Y0312590D01*
X-0027633D01*
Y0312257D01*
X0069698Y0311803D02*
X0069643Y0311748D01*
Y0311637D01*
X0069698Y0311581D01*
X0069754D01*
X0069865Y0311692D01*
X0069976Y0311581D01*
Y0311803D01*
X0069643Y0311991D02*
Y0312102D01*
Y0312047D02*
X0069976D01*
X0069920Y0312102D01*
X0069809Y0312429D02*
X0069643Y0312345D01*
X0069809Y0312568D02*
Y0312401D01*
X0069865Y0312345D01*
X0069920D01*
X0069976Y0312401D01*
Y0312568D01*
X0069643D01*
X0007030Y0307918D02*
X0006919D01*
X0006974D02*
Y0308251D01*
X0006919Y0308195D01*
X0006564Y0308029D02*
X0006675Y0307918D01*
X0006453Y0307973D02*
X0006481Y0307918D01*
X0006592D01*
X0006620Y0307973D01*
X0006675Y0308029D01*
Y0308195D01*
X0006648Y0308251D01*
X0006481D01*
X0006453Y0308195D01*
Y0307973D01*
X-0001577Y0285710D02*
X-0001522Y0285766D01*
X-0001466Y0285793D01*
X-0001355D01*
X-0001299Y0285766D01*
X-0001244Y0285710D01*
Y0285654D01*
X-0001299Y0285599D01*
X-0001355Y0285571D01*
X-0001466D01*
X-0001522Y0285599D01*
X-0001577Y0285654D01*
Y0285710D01*
Y0285981D02*
Y0286203D01*
X-0001355Y0285981D01*
X-0001299D01*
X-0001244Y0286009D01*
Y0286176D01*
X-0001299Y0286203D01*
X-0001577Y0286391D02*
Y0286502D01*
Y0286447D02*
X-0001244D01*
X-0001299Y0286502D01*
X-0001522Y0286745D02*
X-0001577Y0286773D01*
Y0286940D01*
X-0001522Y0286968D01*
X-0001299D01*
X-0001244Y0286940D01*
Y0286773D01*
X-0001299Y0286745D01*
X0001505Y0288614D02*
Y0288503D01*
Y0288559D02*
X0001172D01*
X0001227Y0288503D01*
X0001505Y0288260D02*
Y0288038D01*
X0001283Y0288260D01*
X0001227D01*
X0001172Y0288232D01*
Y0288065D01*
X0001227Y0288038D01*
X0001505Y0287850D02*
Y0287739D01*
Y0287794D02*
X0001172D01*
X0001227Y0287739D01*
X0001449Y0287495D02*
X0001505Y0287468D01*
Y0287301D01*
X0001449Y0287273D01*
X0001227D01*
X0001172Y0287301D01*
Y0287468D01*
X0001227Y0287495D01*
X0009644Y0280664D02*
X0009422D01*
X0009644Y0280886D01*
Y0280942D01*
X0009616Y0280997D01*
X0009450D01*
X0009422Y0280942D01*
X0009012Y0280719D02*
X0009067Y0280664D01*
X0009179D01*
X0009234Y0280719D01*
Y0280775D01*
X0009123Y0280886D01*
X0009234Y0280997D01*
X0009012D01*
X0008741Y0280830D02*
X0008824Y0280664D01*
X0008602Y0280830D02*
X0008769D01*
X0008824Y0280886D01*
Y0280942D01*
X0008769Y0280997D01*
X0008602D01*
Y0280664D01*
X-0012713Y0325348D02*
X-0012768Y0325292D01*
X-0012824Y0325264D01*
X-0012935D01*
X-0012990Y0325292D01*
X-0013046Y0325348D01*
Y0325403D01*
X-0012990Y0325459D01*
X-0012935Y0325487D01*
X-0012824D01*
X-0012768Y0325459D01*
X-0012713Y0325403D01*
Y0325348D01*
Y0325077D02*
Y0324965D01*
Y0325021D02*
X-0013046D01*
X-0012990Y0324965D01*
X0041584Y0287193D02*
Y0287360D01*
X0041640Y0287388D01*
X0041696D01*
X0041751Y0287360D01*
Y0287193D01*
X0041696Y0287166D01*
X0041640D01*
X0041418Y0287277D01*
X0041751Y0286978D02*
Y0286756D01*
X0041529Y0286978D01*
X0041473D01*
X0041418Y0286950D01*
Y0286783D01*
X0041473Y0286756D01*
X0041751Y0286568D02*
Y0286457D01*
Y0286512D02*
X0041418D01*
X0041473Y0286457D01*
X0041529Y0286213D02*
Y0286047D01*
X0041584Y0286019D01*
X0041696D01*
X0041751Y0286047D01*
Y0286213D01*
X-0012303Y0320361D02*
Y0320139D01*
X-0012525Y0320361D01*
X-0012580D01*
X-0012636Y0320333D01*
Y0320167D01*
X-0012580Y0320139D01*
X-0010879Y0326143D02*
Y0325977D01*
X-0010935Y0325949D01*
X-0010990D01*
X-0011046Y0325977D01*
Y0326143D01*
X-0010990Y0326171D01*
X-0010935D01*
X-0010713Y0326060D01*
X-0009430Y0283399D02*
X-0009263D01*
X-0009235Y0283344D01*
Y0283288D01*
X-0009263Y0283233D01*
X-0009430D01*
X-0009458Y0283288D01*
Y0283344D01*
X-0009347Y0283566D01*
X-0009645Y0283233D02*
X-0009868D01*
X-0009645Y0283455D01*
Y0283510D01*
X-0009673Y0283566D01*
X-0009840D01*
X-0009868Y0283510D01*
X-0010139Y0283399D02*
X-0010055Y0283233D01*
X-0010278Y0283399D02*
X-0010111D01*
X-0010055Y0283455D01*
Y0283510D01*
X-0010111Y0283566D01*
X-0010278D01*
Y0283233D01*
X-0010817Y0303562D02*
Y0303785D01*
X-0010595Y0303562D01*
X-0010540D01*
X-0010484Y0303590D01*
Y0303757D01*
X-0010540Y0303785D01*
X-0010817Y0304167D02*
X-0010484D01*
X-0010817Y0304195D02*
Y0304028D01*
X-0010706Y0303972D01*
X-0010595D01*
X-0010484Y0304028D01*
Y0304195D01*
X-0010762Y0304382D02*
X-0010817Y0304410D01*
Y0304577D01*
X-0010762Y0304605D01*
X-0010540D01*
X-0010484Y0304577D01*
Y0304410D01*
X-0010540Y0304382D01*
X-0010817Y0304792D02*
Y0304987D01*
X-0010484D01*
X-0009847Y0304504D02*
Y0304615D01*
Y0304560D02*
X-0009514D01*
X-0009570Y0304615D01*
X-0008347Y0304449D02*
Y0304671D01*
X-0008125Y0304449D01*
X-0008069D01*
X-0008014Y0304477D01*
Y0304643D01*
X-0008069Y0304671D01*
X-0002244Y0306094D02*
X-0002466D01*
X-0002355Y0306317D01*
X-0002299D01*
Y0305983D01*
X-0002654D02*
X-0002876D01*
X-0002654Y0306206D01*
Y0306261D01*
X-0002682Y0306317D01*
X-0002848D01*
X-0002876Y0306261D01*
X-0003147Y0306150D02*
X-0003064Y0305983D01*
X-0003286Y0306150D02*
X-0003119D01*
X-0003064Y0306206D01*
Y0306261D01*
X-0003119Y0306317D01*
X-0003286D01*
Y0305983D01*
X-0027527Y0315671D02*
X-0027499Y0315615D01*
X-0027332D01*
X-0027304Y0315671D01*
Y0315782D01*
X-0027360Y0315837D01*
X-0027527D01*
Y0315948D01*
X-0027304D01*
X-0027798Y0315782D02*
X-0027714Y0315615D01*
X-0027937Y0315782D02*
X-0027770D01*
X-0027714Y0315837D01*
Y0315893D01*
X-0027770Y0315948D01*
X-0027937D01*
Y0315615D01*
X0009335Y0281633D02*
X0009224D01*
X0009279D02*
Y0281966D01*
X0009224Y0281910D01*
X0008758Y0281688D02*
X0008814Y0281633D01*
X0008925D01*
X0008980Y0281688D01*
Y0281744D01*
X0008869Y0281855D01*
X0008980Y0281966D01*
X0008758D01*
X0008487Y0281799D02*
X0008570Y0281633D01*
X0008348Y0281799D02*
X0008515D01*
X0008570Y0281855D01*
Y0281910D01*
X0008515Y0281966D01*
X0008348D01*
Y0281633D01*
X0064444Y0291163D02*
Y0291297D01*
Y0291230D02*
X0064844D01*
X0064777Y0291297D01*
Y0291557D02*
X0064844Y0291590D01*
Y0291790D01*
X0064777Y0291823D01*
X0064711D01*
X0064644Y0291790D01*
Y0291590D01*
X0064577Y0291557D01*
X0064511D01*
X0064444Y0291590D01*
Y0291790D01*
X0064511Y0291823D01*
X0064311Y0292017D02*
Y0292283D01*
X0064511Y0292743D02*
X0064444Y0292677D01*
Y0292543D01*
X0064511Y0292477D01*
X0064577D01*
X0064711Y0292610D01*
X0064844Y0292477D01*
Y0292743D01*
X0064444Y0293070D02*
X0064644D01*
X0064844Y0292937D02*
X0064644Y0293037D01*
Y0293103D01*
X0064844Y0293203D01*
X0064444Y0293397D02*
Y0293630D01*
X0064844D01*
X0064644Y0293923D02*
X0064444Y0293823D01*
X0064644Y0294090D02*
Y0293890D01*
X0064711Y0293823D01*
X0064777D01*
X0064844Y0293890D01*
Y0294090D01*
X0064444D01*
X0034062Y0295788D02*
X0034228Y0296122D01*
X0034006D01*
X0033818Y0295788D02*
X0033707D01*
X0033763D02*
Y0296122D01*
X0033707Y0296066D01*
X0033464Y0296122D02*
Y0295844D01*
X0033436Y0295788D01*
X0033269D01*
X0033242Y0295844D01*
Y0296122D01*
X0042356Y0291974D02*
Y0291752D01*
X0042134Y0291863D01*
Y0291919D01*
X0042467D01*
X0042412Y0291342D02*
X0042467Y0291398D01*
Y0291509D01*
X0042412Y0291564D01*
X0042356D01*
X0042245Y0291453D01*
X0042134Y0291564D01*
Y0291342D01*
X0042301Y0291071D02*
X0042467Y0291154D01*
X0042301Y0290932D02*
Y0291099D01*
X0042245Y0291154D01*
X0042189D01*
X0042134Y0291099D01*
Y0290932D01*
X0042467D01*
X-0031593Y0330584D02*
Y0330362D01*
X-0031815Y0330584D01*
X-0031870D01*
X-0031926Y0330557D01*
Y0330390D01*
X-0031870Y0330362D01*
X-0031759Y0330091D02*
X-0031593Y0330174D01*
X-0031759Y0329952D02*
Y0330119D01*
X-0031815Y0330174D01*
X-0031870D01*
X-0031926Y0330119D01*
Y0329952D01*
X-0031593D01*
X0028876Y0293570D02*
X0028932Y0293514D01*
X0029043D01*
X0029098Y0293570D01*
Y0293625D01*
X0028987Y0293737D01*
X0029098Y0293848D01*
X0028876D01*
X0028688Y0293514D02*
X0028466D01*
X0028688Y0293737D01*
Y0293792D01*
X0028660Y0293848D01*
X0028494D01*
X0028466Y0293792D01*
X0028278Y0293514D02*
X0028167D01*
X0028223D02*
Y0293848D01*
X0028167Y0293792D01*
X0027924Y0293570D02*
X0027896Y0293514D01*
X0027729D01*
X0027702Y0293570D01*
Y0293792D01*
X0027729Y0293848D01*
X0027896D01*
X0027924Y0293792D01*
X0017714Y0338369D02*
X0017492D01*
X0017714Y0338591D01*
Y0338647D01*
X0017687Y0338702D01*
X0017520D01*
X0017492Y0338647D01*
X0017304Y0338480D02*
X0017082D01*
X0017304Y0338369D02*
Y0338536D01*
X0017221Y0338702D01*
X0017166D01*
X0017082Y0338536D01*
Y0338369D01*
X0016894D02*
X0016672D01*
X0016894Y0338591D01*
Y0338647D01*
X0016867Y0338702D01*
X0016700D01*
X0016672Y0338647D01*
X0015414Y0338702D02*
Y0338591D01*
X0015303Y0338369D01*
X0015192Y0338591D01*
Y0338702D01*
X0014866Y0338369D02*
X0014810Y0338424D01*
X0014782Y0338480D01*
Y0338591D01*
X0014810Y0338647D01*
X0014866Y0338702D01*
X0014921D01*
X0014977Y0338647D01*
X0015004Y0338591D01*
Y0338480D01*
X0014977Y0338424D01*
X0014921Y0338369D01*
X0014866D01*
X0014456D02*
X0014400Y0338424D01*
X0014372Y0338480D01*
Y0338591D01*
X0014400Y0338647D01*
X0014456Y0338702D01*
X0014511D01*
X0014567Y0338647D01*
X0014594Y0338591D01*
Y0338480D01*
X0014567Y0338424D01*
X0014511Y0338369D01*
X0014456D01*
X0014184D02*
X0014073D01*
X0014129D02*
Y0338702D01*
X0014073Y0338647D01*
X0005874Y0328530D02*
X0005652D01*
X0005874Y0328419D02*
Y0328586D01*
X0005791Y0328752D01*
X0005736D01*
X0005652Y0328586D01*
Y0328419D01*
X0005464D02*
X0005242D01*
X0005464Y0328641D01*
Y0328697D01*
X0005437Y0328752D01*
X0005270D01*
X0005242Y0328697D01*
X0003984Y0328752D02*
Y0328641D01*
X0003873Y0328419D01*
X0003762Y0328641D01*
Y0328752D01*
X0003436Y0328419D02*
X0003380Y0328474D01*
X0003352Y0328530D01*
Y0328641D01*
X0003380Y0328697D01*
X0003436Y0328752D01*
X0003491D01*
X0003547Y0328697D01*
X0003574Y0328641D01*
Y0328530D01*
X0003547Y0328474D01*
X0003491Y0328419D01*
X0003436D01*
X0003026D02*
X0002970Y0328474D01*
X0002942Y0328530D01*
Y0328641D01*
X0002970Y0328697D01*
X0003026Y0328752D01*
X0003081D01*
X0003137Y0328697D01*
X0003164Y0328641D01*
Y0328530D01*
X0003137Y0328474D01*
X0003081Y0328419D01*
X0003026D01*
X0002754D02*
X0002643D01*
X0002699D02*
Y0328752D01*
X0002643Y0328697D01*
X0066073Y0341374D02*
Y0341485D01*
Y0341430D02*
X0066406D01*
X0066350Y0341485D01*
X0009017Y0296458D02*
X0008906D01*
X0008962D02*
Y0296791D01*
X0008906Y0296735D01*
X0008663Y0296458D02*
X0008496Y0296791D01*
X0008663D02*
X0008496Y0296458D01*
X0008169D02*
Y0296791D01*
X0008280D02*
X0008058D01*
X0076064Y0324536D02*
Y0324647D01*
Y0324591D02*
X0076397D01*
X0076341Y0324647D01*
X0076230Y0324946D02*
Y0325113D01*
X0076064D02*
X0076397D01*
Y0324890D01*
X0073853Y0341199D02*
Y0341310D01*
Y0341254D02*
X0074186D01*
X0074130Y0341310D01*
X0073964Y0341748D02*
X0073908D01*
X0073853Y0341720D01*
Y0341609D01*
X0073908Y0341581D01*
X0074186D01*
Y0341553D02*
Y0341664D01*
X0073943Y0337053D02*
Y0337276D01*
X0074165Y0337053D01*
X0074220D01*
X0074276Y0337081D01*
Y0337248D01*
X0074220Y0337276D01*
X0074054Y0337658D02*
X0073998D01*
X0073943Y0337630D01*
Y0337519D01*
X0073998Y0337491D01*
X0074276D01*
Y0337463D02*
Y0337574D01*
X-0029813Y0303443D02*
Y0303332D01*
Y0303388D02*
X-0030146D01*
X-0030090Y0303332D01*
X-0029813Y0303089D02*
Y0302978D01*
Y0303033D02*
X-0030146D01*
X-0030090Y0302978D01*
X-0029813Y0302540D02*
X-0030146D01*
X-0029813Y0302512D02*
Y0302679D01*
X-0029924Y0302734D01*
X-0030035D01*
X-0030146Y0302679D01*
Y0302512D01*
X-0030633Y0299764D02*
Y0299653D01*
Y0299709D02*
X-0030966D01*
X-0030910Y0299653D01*
X-0030034Y0321044D02*
Y0320822D01*
X-0030256Y0320933D01*
Y0320989D01*
X-0029923D01*
Y0320440D02*
X-0030256D01*
X-0029923Y0320412D02*
Y0320579D01*
X-0030034Y0320634D01*
X-0030145D01*
X-0030256Y0320579D01*
Y0320412D01*
X-0030733Y0317664D02*
Y0317553D01*
Y0317609D02*
X-0031066D01*
X-0031010Y0317553D01*
X-0030078Y0314522D02*
X-0030023Y0314578D01*
Y0314689D01*
X-0030078Y0314744D01*
X-0030134D01*
X-0030245Y0314633D01*
X-0030356Y0314744D01*
Y0314522D01*
X-0030023Y0314140D02*
X-0030356D01*
X-0030023Y0314112D02*
Y0314279D01*
X-0030134Y0314334D01*
X-0030245D01*
X-0030356Y0314279D01*
Y0314112D01*
X-0030733Y0311564D02*
Y0311453D01*
Y0311509D02*
X-0031066D01*
X-0031010Y0311453D01*
X-0029943Y0309144D02*
Y0308922D01*
X-0030165Y0309144D01*
X-0030220D01*
X-0030276Y0309116D01*
Y0308950D01*
X-0030220Y0308922D01*
X-0029943Y0308540D02*
X-0030276D01*
X-0029943Y0308512D02*
Y0308679D01*
X-0030054Y0308734D01*
X-0030165D01*
X-0030276Y0308679D01*
Y0308512D01*
X-0030733Y0305764D02*
Y0305653D01*
Y0305709D02*
X-0031066D01*
X-0031010Y0305653D01*
X-0030523Y0338939D02*
Y0338828D01*
Y0338883D02*
X-0030856D01*
X-0030800Y0338828D01*
X-0030523Y0338390D02*
X-0030856D01*
X-0030523Y0338362D02*
Y0338529D01*
X-0030634Y0338584D01*
X-0030745D01*
X-0030856Y0338529D01*
Y0338362D01*
X-0030683Y0335644D02*
Y0335533D01*
Y0335589D02*
X-0031016D01*
X-0030960Y0335533D01*
X0065590Y0296560D02*
X0066590D01*
Y0299560D01*
X0065590D01*
Y0296560D01*
X0052490Y0302800D02*
Y0301800D01*
X0055490D01*
Y0302800D01*
X0052490D01*
X0009730Y0300690D02*
Y0301690D01*
X0006730D01*
Y0300690D01*
X0009730D01*
X-0025120Y0327250D02*
X-0024120D01*
Y0330250D01*
X-0025120D01*
Y0327250D01*
X-0014150Y0315680D02*
X-0013150D01*
Y0318680D01*
X-0014150D01*
Y0315680D01*
X-0016000Y0307700D02*
X-0017000D01*
Y0304700D01*
X-0016000D01*
Y0307700D01*
X0063780Y0306300D02*
Y0305300D01*
X0066780D01*
Y0306300D01*
X0063780D01*
X-0008200Y0310500D02*
X-0009200D01*
Y0307500D01*
X-0008200D01*
Y0310500D01*
X0045310Y0302700D02*
Y0301700D01*
X0048310D01*
Y0302700D01*
X0045310D01*
X-0009720Y0309530D02*
Y0310530D01*
X-0012720D01*
Y0309530D01*
X-0009720D01*
X0059530Y0302910D02*
Y0301910D01*
X0062530D01*
Y0302910D01*
X0059530D01*
X-0003400Y0313900D02*
X-0004400D01*
Y0310900D01*
X-0003400D01*
Y0313900D01*
X-0009600Y0288740D02*
X-0010600D01*
Y0285740D01*
X-0009600D01*
Y0288740D01*
X0078410Y0343850D02*
Y0343650D01*
X0077010D01*
Y0345050D01*
X0078410D01*
Y0343850D01*
X0013720Y0293400D02*
X0011720D01*
Y0295000D01*
X0017220D01*
Y0293400D01*
X0013720D01*
X0011710Y0309700D02*
X0009710D01*
Y0311300D01*
X0015210D01*
Y0309700D01*
X0011710D01*
X0053191Y0306430D02*
X0063231D01*
Y0332808D01*
X0053191D01*
Y0306430D01*
X0047087Y0342507D02*
Y0342901D01*
X0019135D01*
Y0307468D01*
X0047087D01*
Y0342507D01*
X0065740Y0339730D02*
X0065540D01*
Y0341130D01*
X0066940D01*
Y0339730D01*
X0065740D01*
X0006510Y0313000D02*
Y0314000D01*
X0004510D01*
Y0313000D01*
X0006510D01*
X0009210Y0290650D02*
X0013410D01*
Y0288400D01*
X0009210D01*
Y0290650D01*
X0013410Y0290100D02*
X0009210D01*
X0016620Y0290670D02*
X0020820D01*
Y0288420D01*
X0016620D01*
Y0290670D01*
X0020820Y0290120D02*
X0016620D01*
X-0000520Y0337980D02*
Y0333780D01*
X-0002770D01*
Y0337980D01*
X-0000520D01*
X-0001070Y0333780D02*
Y0337980D01*
X0023780Y0293120D02*
X0024405D01*
X0021155D02*
X0021780D01*
X0023280Y0293620D02*
Y0292620D01*
X0021780Y0293620D02*
Y0292620D01*
X0023780D01*
Y0293620D01*
X0021780D01*
X0029320Y0284120D02*
Y0285120D01*
X0027320D01*
Y0284120D01*
X0029320D01*
X-0004720Y0290310D02*
X-0006700Y0290300D01*
Y0289300D01*
X-0004720D01*
X-0004730Y0289310D01*
Y0290300D01*
X-0004720Y0290310D01*
X-0004450Y0288100D02*
X-0001950D01*
Y0288600D01*
Y0289100D01*
X-0004450D01*
Y0288600D01*
Y0288100D01*
X-0004700Y0288600D02*
X-0004450D01*
X-0001700D02*
X-0001950D01*
X0002400Y0337130D02*
Y0337755D01*
X-0000300Y0295500D02*
X-0000050D01*
Y0294500D01*
X-0000300D01*
Y0296000D02*
X0007640D01*
Y0291970D01*
X0004750D01*
X-0000300Y0291980D01*
Y0296000D01*
X0076075Y0330075D02*
X0074325D01*
Y0329325D01*
X0076075D01*
Y0330075D01*
X0074075Y0329700D02*
X0074325D01*
X0076325D02*
X0076075D01*
X-0000400Y0311700D02*
X0000600D01*
Y0313700D01*
X-0000400D01*
Y0311700D01*
X-0001700Y0315450D02*
Y0312950D01*
X-0001200D01*
X-0000700D01*
Y0315450D01*
X-0001200D01*
X-0001700D01*
X-0001200Y0315700D02*
Y0315450D01*
Y0312700D02*
Y0312950D01*
X0002400Y0334505D02*
Y0335130D01*
X0071540Y0339900D02*
X0073540D01*
Y0342900D01*
X0071540D01*
Y0339900D01*
Y0335900D02*
X0073540D01*
Y0338900D01*
X0071540D01*
Y0335900D01*
X0068090Y0300065D02*
X0067090D01*
X0066590D01*
Y0304315D01*
X0068590D01*
Y0300065D01*
X0068090D01*
Y0300315D01*
X0067090D01*
Y0300065D01*
X0064290Y0303930D02*
Y0301430D01*
X0064790D01*
X0065290D01*
Y0303930D01*
X0064790D01*
X0064290D01*
X0064790Y0304180D02*
Y0303930D01*
Y0301180D02*
Y0301430D01*
X0070280Y0307410D02*
Y0304910D01*
X0070780D01*
X0071280D01*
Y0307410D01*
X0070780D01*
X0070280D01*
X0070780Y0307660D02*
Y0307410D01*
Y0304660D02*
Y0304910D01*
X-0026210Y0290060D02*
X-0028710D01*
Y0289560D01*
Y0289060D01*
X-0026210D01*
Y0289560D01*
Y0290060D01*
X-0025960Y0289560D02*
X-0026210D01*
X-0028960D02*
X-0028710D01*
X-0031350Y0338089D02*
Y0336089D01*
X-0030350D01*
Y0338089D01*
X-0031350D01*
X0074085Y0328410D02*
X0074335D01*
X0076335D02*
X0076085D01*
X-0031400Y0320109D02*
Y0318109D01*
X-0030400D01*
Y0320109D01*
X-0031400D01*
Y0314009D02*
Y0312009D01*
X-0030400D01*
Y0314009D01*
X-0031400D01*
Y0308209D02*
Y0306209D01*
X-0030400D01*
Y0308209D01*
X-0031400D01*
X-0004770Y0304210D02*
Y0301710D01*
X-0004270D01*
X-0003770D01*
Y0304210D01*
X-0004270D01*
X-0004770D01*
X-0004270Y0304460D02*
Y0304210D01*
Y0301460D02*
Y0301710D01*
X-0025410Y0288420D02*
Y0287420D01*
X-0023410D01*
Y0288420D01*
X-0025410D01*
X0038215Y0280820D02*
X0038090D01*
Y0284320D01*
X0038215D01*
Y0284570D01*
X0036215D01*
Y0280570D01*
X0038215D01*
Y0280820D01*
X0041265Y0280870D02*
X0041140D01*
Y0284370D01*
X0041265D01*
Y0284620D01*
X0039265D01*
Y0280620D01*
X0041265D01*
Y0280870D01*
X0004290Y0283590D02*
X0006790D01*
Y0284090D01*
Y0284590D01*
X0004290D01*
Y0284090D01*
Y0283590D01*
X0004040Y0284090D02*
X0004290D01*
X0007040D02*
X0006790D01*
X-0014770Y0318670D02*
Y0319170D01*
Y0320170D01*
Y0320670D01*
X-0024270D01*
Y0318670D01*
X-0014770D01*
Y0319170D02*
X-0015020D01*
Y0320170D01*
X-0014770D01*
X-0025440Y0283840D02*
Y0282840D01*
X-0023440D01*
Y0283840D01*
X-0025440D01*
X-0004775Y0308140D02*
Y0309140D01*
Y0309640D01*
X0002975D01*
Y0307640D01*
X-0004775D01*
Y0308140D01*
X-0004525D01*
Y0309140D01*
X-0004775D01*
X-0007950Y0281220D02*
X-0005450D01*
Y0281720D01*
Y0282220D01*
X-0007950D01*
Y0281720D01*
Y0281220D01*
X-0008200Y0281720D02*
X-0007950D01*
X-0005200D02*
X-0005450D01*
X0037120Y0287230D02*
Y0289730D01*
X0036620D01*
X0036120D01*
Y0287230D01*
X0036620D01*
X0037120D01*
X0036620Y0286980D02*
Y0287230D01*
Y0289980D02*
Y0289730D01*
X0068290Y0306505D02*
X0067290D01*
X0066790D01*
Y0310755D01*
X0068790D01*
Y0306505D01*
X0068290D01*
Y0306755D01*
X0067290D01*
Y0306505D01*
X-0014100Y0310540D02*
X-0013100D01*
Y0306540D01*
X-0014100D01*
Y0310540D01*
X-0031300Y0302209D02*
Y0300209D01*
X-0030300D01*
Y0302209D01*
X-0031300D01*
X0005100Y0304440D02*
Y0301940D01*
X0005600D01*
X0006100D01*
Y0304440D01*
X0005600D01*
X0005100D01*
X0005600Y0304690D02*
Y0304440D01*
Y0301690D02*
Y0301940D01*
X0004760Y0314530D02*
Y0315530D01*
X0002760D01*
Y0314530D01*
X0004760D01*
X0030640Y0293030D02*
X0029640D01*
Y0291030D01*
X0030640D01*
Y0293030D01*
X-0024420Y0284560D02*
Y0286560D01*
X-0025420D02*
Y0284560D01*
X0037800Y0285280D02*
X0037175D01*
X0040425D02*
X0039800D01*
X0038300Y0284780D02*
Y0285780D01*
X0039800Y0284780D02*
Y0285780D01*
X0037800D01*
Y0284780D01*
X0039800D01*
X0048790Y0298670D02*
Y0288670D01*
X0043790D01*
Y0298670D01*
X0048790D01*
X0037720Y0289730D02*
Y0290355D01*
Y0287105D02*
Y0287730D01*
X0037220Y0289230D02*
X0038220D01*
X0037220Y0287730D02*
X0038220D01*
Y0289730D01*
X0037220D01*
Y0287730D01*
X0060780Y0300680D02*
X0061405D01*
X0058155D02*
X0058780D01*
X0060280Y0301180D02*
Y0300180D01*
X0058780Y0301180D02*
Y0300180D01*
X0060780D01*
Y0301180D01*
X0058780D01*
X0064100Y0310380D02*
Y0307880D01*
X0064600D01*
X0065100D01*
Y0310380D01*
X0064600D01*
X0064100D01*
X0064600Y0310630D02*
Y0310380D01*
Y0307630D02*
Y0307880D01*
X-0007540Y0316225D02*
Y0316100D01*
X-0011040D01*
Y0316225D01*
X-0011290D01*
Y0314225D01*
X-0007290D01*
Y0316225D01*
X-0007540D01*
X0023910Y0288310D02*
X0028110D01*
Y0286060D01*
X0023910D01*
Y0288310D01*
X0028110Y0287760D02*
X0023910D01*
X-0013630Y0292205D02*
X-0012630D01*
X-0012130D01*
Y0282955D01*
X-0014130D01*
Y0292205D01*
X-0013630D01*
Y0291955D01*
X-0012630D01*
Y0292205D01*
X0038220Y0291680D02*
Y0292680D01*
X0036220D01*
Y0291680D01*
X0038220D01*
X0003400Y0333380D02*
X0004400D01*
Y0335380D01*
X0003400D01*
Y0333380D01*
X-0013180Y0295060D02*
X-0014180D01*
Y0304060D01*
X-0013180D01*
Y0295060D01*
X0003420Y0301850D02*
Y0304350D01*
X0002920D01*
X0002420D01*
Y0301850D01*
X0002920D01*
X0003420D01*
X0002920Y0301600D02*
Y0301850D01*
Y0304600D02*
Y0304350D01*
X-0007950Y0280020D02*
X-0005450D01*
Y0280520D01*
Y0281020D01*
X-0007950D01*
Y0280520D01*
Y0280020D01*
X-0008200Y0280520D02*
X-0007950D01*
X-0005200D02*
X-0005450D01*
X0038220Y0292880D02*
Y0293880D01*
X0036220D01*
Y0292880D01*
X0038220D01*
X0046560Y0300560D02*
X0047185D01*
X0043935D02*
X0044560D01*
X0046060Y0301060D02*
Y0300060D01*
X0044560Y0301060D02*
Y0300060D01*
X0046560D01*
Y0301060D01*
X0044560D01*
X-0007950Y0283620D02*
X-0005450D01*
Y0284120D01*
Y0284620D01*
X-0007950D01*
Y0284120D01*
Y0283620D01*
X-0008200Y0284120D02*
X-0007950D01*
X-0005200D02*
X-0005450D01*
X0000020Y0301850D02*
Y0304350D01*
X-0000480D01*
X-0000980D01*
Y0301850D01*
X-0000480D01*
X0000020D01*
X-0000480Y0301600D02*
Y0301850D01*
Y0304600D02*
Y0304350D01*
X-0024770Y0298100D02*
Y0300600D01*
X-0025270D01*
X-0025770D01*
Y0298100D01*
X-0025270D01*
X-0024770D01*
X-0025270Y0297850D02*
Y0298100D01*
Y0300850D02*
Y0300600D01*
X0016200Y0311750D02*
Y0311125D01*
Y0314375D02*
Y0313750D01*
X0016700Y0312250D02*
X0015700D01*
X0016700Y0313750D02*
X0015700D01*
Y0311750D01*
X0016700D01*
Y0313750D01*
X0053740Y0300590D02*
X0054365D01*
X0051115D02*
X0051740D01*
X0053240Y0301090D02*
Y0300090D01*
X0051740Y0301090D02*
Y0300090D01*
X0053740D01*
Y0301090D01*
X0051740D01*
X-0018910Y0304560D02*
Y0304310D01*
X-0019910D01*
Y0304560D01*
X-0021410D01*
Y0283060D01*
X-0017410D01*
Y0304560D01*
X-0019910D01*
X0001900Y0336630D02*
X0002900D01*
X0001900Y0335130D02*
X0002900D01*
Y0337130D01*
X0001900D01*
Y0335130D01*
X-0020020Y0322800D02*
X-0019020D01*
Y0324800D01*
X-0020020D01*
Y0322800D01*
X-0001565Y0284575D02*
X0000685D01*
Y0280325D01*
X-0001565D01*
Y0284575D01*
X0000685Y0284325D02*
X-0001565D01*
X-0026240Y0308300D02*
X-0028740D01*
Y0307800D01*
Y0307300D01*
X-0026240D01*
Y0307800D01*
Y0308300D01*
X-0025990Y0307800D02*
X-0026240D01*
X-0028990D02*
X-0028740D01*
X0055990Y0298660D02*
Y0288660D01*
X0050990D01*
Y0298660D01*
X0055990D01*
X0021580Y0283450D02*
X0020580D01*
Y0281450D01*
X0021580D01*
Y0283450D01*
X-0026140Y0314010D02*
X-0028640D01*
Y0313510D01*
Y0313010D01*
X-0026140D01*
Y0313510D01*
Y0314010D01*
X-0025890Y0313510D02*
X-0026140D01*
X-0028890D02*
X-0028640D01*
X0070290Y0313310D02*
Y0310810D01*
X0070790D01*
X0071290D01*
Y0313310D01*
X0070790D01*
X0070290D01*
X0070790Y0313560D02*
Y0313310D01*
Y0310560D02*
Y0310810D01*
X-0002760Y0285350D02*
X-0001760D01*
Y0287350D01*
X-0002760D01*
Y0285350D01*
X0000870Y0284940D02*
X0001870D01*
Y0286940D01*
X0000870D01*
Y0284940D01*
X0076085Y0328785D02*
X0074335D01*
Y0328035D01*
X0076085D01*
Y0328785D01*
X0013810Y0314500D02*
Y0315500D01*
X0011810D01*
Y0314500D01*
X0013810D01*
X0004230Y0280080D02*
X0006730D01*
Y0280580D01*
Y0281080D01*
X0004230D01*
Y0280580D01*
Y0280080D01*
X0003980Y0280580D02*
X0004230D01*
X0006980D02*
X0006730D01*
X-0012480Y0320710D02*
Y0325710D01*
X-0010480D01*
Y0320710D01*
X-0012480D01*
X-0007950Y0282420D02*
X-0005450D01*
Y0282920D01*
Y0283420D01*
X-0007950D01*
Y0282920D01*
Y0282420D01*
X-0008200Y0282920D02*
X-0007950D01*
X-0005200D02*
X-0005450D01*
X-0008180Y0304060D02*
Y0296060D01*
X-0010180D01*
Y0304060D01*
X-0008180D01*
X-0002530Y0301770D02*
Y0304270D01*
X-0003030D01*
X-0003530D01*
Y0301770D01*
X-0003030D01*
X-0002530D01*
X-0003030Y0301520D02*
Y0301770D01*
Y0304520D02*
Y0304270D01*
X0004510Y0313500D02*
X0003885D01*
X-0026160Y0315500D02*
X-0028660D01*
Y0315000D01*
Y0314500D01*
X-0026160D01*
Y0315000D01*
Y0315500D01*
X-0025910Y0315000D02*
X-0026160D01*
X-0028910D02*
X-0028660D01*
X0004310Y0281260D02*
X0006810D01*
Y0281760D01*
Y0282260D01*
X0004310D01*
Y0281760D01*
Y0281260D01*
X0004060Y0281760D02*
X0004310D01*
X0007060D02*
X0006810D01*
X0063050Y0298680D02*
Y0288680D01*
X0058050D01*
Y0298680D01*
X0063050D01*
X0007135Y0313500D02*
X0006510D01*
X0005010Y0313000D02*
Y0314000D01*
X0032400Y0294475D02*
X0033400D01*
X0033900D01*
Y0281725D01*
X0031900D01*
Y0294475D01*
X0032400D01*
Y0294225D01*
X0033400D01*
Y0294475D01*
X0041980Y0289030D02*
Y0291530D01*
X0041480D01*
X0040980D01*
Y0289030D01*
X0041480D01*
X0041980D01*
X0041480Y0288780D02*
Y0289030D01*
Y0291780D02*
Y0291530D01*
X-0030340Y0329240D02*
Y0331740D01*
X-0030840D01*
X-0031340D01*
Y0329240D01*
X-0030840D01*
X-0030340D01*
X-0030840Y0328990D02*
Y0329240D01*
Y0331990D02*
Y0331740D01*
X0001300Y0303830D02*
Y0304455D01*
Y0301205D02*
Y0301830D01*
X0000800Y0303330D02*
X0001800D01*
X0000800Y0301830D02*
X0001800D01*
Y0303830D01*
X0000800D01*
Y0301830D01*
X0004310Y0282360D02*
X0006810D01*
Y0282860D01*
Y0283360D01*
X0004310D01*
Y0282860D01*
Y0282360D01*
X0004060Y0282860D02*
X0004310D01*
X0007060D02*
X0006810D01*
G01X0012590Y0316410D02*
G03X0016090Y0319910I0000000J0003500D01*
G01X0009090D02*
G03X0012590Y0316410I0003500J0000000D01*
Y0323410D02*
G03X0009090Y0319910I0000000J0003500D01*
G01X0016090D02*
G03X0012590Y0323410I0003500J0000000D01*
G01X-0005720Y0333654D02*
G03X-0003484Y0335890I0000000J0002236D01*
G01X-0007956D02*
G03X-0005720Y0333654I0002236J0000000D01*
Y0338126D02*
G03X-0007956Y0335890I0000000J0002236D01*
G01X-0003484D02*
G03X-0005720Y0338126I0002236J0000000D01*
G01X0004760Y0316410D02*
G03X0008260Y0319910I0000000J0003500D01*
G01X0001260D02*
G03X0004760Y0316410I0003500J0000000D01*
Y0323410D02*
G03X0001260Y0319910I0000000J0003500D01*
G01X0008260D02*
G03X0004760Y0323410I0003500J0000000D01*
G01X0008900Y0324820D02*
G03X0011400Y0327320I0000000J0002500D01*
G01X0006400D02*
G03X0008900Y0324820I0002500J0000000D01*
Y0329820D02*
G03X0006400Y0327320I0000000J0002500D01*
G01X0011400D02*
G03X0008900Y0329820I0002500J0000000D01*
G01X0018710Y0283574D02*
G03X0020946Y0285810I0000000J0002236D01*
G01X0016474D02*
G03X0018710Y0283574I0002236J0000000D01*
Y0288046D02*
G03X0016474Y0285810I0000000J0002236D01*
G01X0020946D02*
G03X0018710Y0288046I0002236J0000000D01*
G01X0011300Y0283524D02*
G03X0013536Y0285760I0000000J0002236D01*
G01X0009064D02*
G03X0011300Y0283524I0002236J0000000D01*
Y0287996D02*
G03X0009064Y0285760I0000000J0002236D01*
G01X0013536D02*
G03X0011300Y0287996I0002236J0000000D01*
G01X0008880Y0331870D02*
G03X0012380Y0335370I0000000J0003500D01*
G01X0005380D02*
G03X0008880Y0331870I0003500J0000000D01*
Y0338870D02*
G03X0005380Y0335370I0000000J0003500D01*
G01X0012380D02*
G03X0008880Y0338870I0003500J0000000D01*
G01X-0020960Y0324250D02*
G03X-0022460Y0325750I0001500J0000000D01*
G03X-0023960Y0324250I0000000J0001500D01*
G03X-0022460Y0322750I0001500J0000000D01*
G03X-0020960Y0324250I0000000J0001500D01*
G01X0027330Y0282100D02*
G03X0028830Y0280600I0001500J0000000D01*
G03X0030330Y0282100I0000000J0001500D01*
G03X0028830Y0283600I0001500J0000000D01*
G03X0027330Y0282100I0000000J0001500D01*
G01X0038480Y0289550D02*
G03X0039630Y0288400I0001150J0000000D01*
G03X0040780Y0289550I0000000J0001150D01*
G03X0039630Y0290700I0001150J0000000D01*
G03X0038480Y0289550I0000000J0001150D01*
G01X0016200Y0332800D02*
G03X0018700Y0335300I0000000J0002500D01*
G01X0013700D02*
G03X0016200Y0332800I0002500J0000000D01*
Y0337800D02*
G03X0013700Y0335300I0000000J0002500D01*
G01X0018700D02*
G03X0016200Y0337800I0002500J0000000D01*
G01X0025000Y0285020D02*
G03X0023500Y0283520I0000000J0001500D01*
G03X0025000Y0282020I0001500J0000000D01*
G03X0026500Y0283520I0000000J0001500D01*
G03X0025000Y0285020I0001500J0000000D01*
G01X-0028110Y0295510D02*
G03X-0026610Y0294010I0001500J0000000D01*
G03X-0025110Y0295510I0000000J0001500D01*
G03X-0026610Y0297010I0001500J0000000D01*
G03X-0028110Y0295510I0000000J0001500D01*
G01X0020200Y0281950D02*
G03X0018700Y0283450I0001500J0000000D01*
G03X0017200Y0281950I0000000J0001500D01*
G03X0018700Y0280450I0001500J0000000D01*
G03X0020200Y0281950I0000000J0001500D01*
G01X0003750Y0307280D02*
G03X0004900Y0306130I0001150J0000000D01*
G03X0006050Y0307280I0000000J0001150D01*
G03X0004900Y0308430I0001150J0000000D01*
G03X0003750Y0307280I0000000J0001150D01*
G01X0027800Y0293200D02*
G03X0026300Y0291700I0000000J0001500D01*
G03X0027800Y0290200I0001500J0000000D01*
G03X0029300Y0291700I0000000J0001500D01*
G03X0027800Y0293200I0001500J0000000D01*
G54D83*
G01X0038630Y0290550D02*
X0038705Y0290475D01*
X0003900Y0308280D02*
X0003975Y0308205D01*
M02*
