*
G04 Mass Parameters ***
*
G04 Image ***
*
%ING:\DRM V3R5\DRM1-33_N.SMB*%
%ICAS*%
%MOIN*%
%IPPOS*%
%ASAXBY*%
G74*%FSLAN2X34Y34*%
*
G04 Aperture Definitions ***
*
%ADD10C,0.0790*%
%ADD11R,0.0700X0.0700*%
%ADD12C,0.1500*%
%ADD13C,0.0650*%
%ADD14R,0.0650X0.0650*%
%ADD15R,0.0790X0.0790*%
%ADD16C,0.0580*%
%ADD17R,0.0580X0.0580*%
%ADD18C,0.0690*%
%ADD19R,0.0690X0.0690*%
%ADD20C,0.0700*%
%ADD21C,0.1000*%
%ADD22R,0.1000X0.1000*%
%ADD23C,0.0550*%
%ADD24C,0.0450*%
%ADD25C,0.1200*%
%ADD26C,0.0750*%
%ADD27O,0.1000X0.0250*%
%ADD28R,0.1000X0.0250*%
%ADD29C,0.0500*%
%ADD30C,0.0200*%
%ADD31C,0.0500*%
%ADD32C,0.0300*%
%ADD33C,0.0500*%
%ADD34C,0.0140*%
%ADD35C,0.0140*%
%ADD36C,0.0790*%
%ADD37R,0.0700X0.0700*%
%ADD38C,0.1500*%
%ADD39C,0.0650*%
%ADD40R,0.0650X0.0650*%
%ADD41R,0.0790X0.0790*%
%ADD42C,0.0580*%
%ADD43R,0.0580X0.0580*%
%ADD44C,0.0690*%
%ADD45R,0.0690X0.0690*%
%ADD46C,0.0700*%
%ADD47R,0.7000X0.1300*%
%ADD48C,0.1000*%
%ADD49R,0.1000X0.1000*%
%ADD50C,0.0550*%
%ADD51C,0.0450*%
%ADD52C,0.1200*%
%ADD53C,0.0750*%
%ADD54C,0.0010*%
%ADD55C,0.0100*%
%ADD56C,0.0720*%
%ADD57R,0.0720X0.0720*%
%ADD58C,0.0780*%
%ADD59R,0.0780X0.0780*%
%ADD60R,0.0750X0.0750*%
%ADD61C,0.0990*%
%ADD62R,0.0990X0.0990*%
%ADD63C,0.0950*%
%ADD64R,0.0950X0.0950*%
%ADD65C,0.0750*%
%ADD66C,0.0750*%
%ADD67C,0.0850*%
%ADD68R,0.0800X0.0800*%
%ADD69C,0.0890*%
%ADD70R,0.0890X0.0890*%
%ADD71C,0.0800*%
%ADD72R,0.1200X0.1200*%
%ADD73C,0.0600*%
%ADD74C,0.1100*%
%ADD75R,0.1100X0.1100*%
%ADD76R,0.0850X0.0850*%
%ADD77C,0.1300*%
%ADD78O,0.1000X0.0250*%
%ADD79R,0.1000X0.0250*%
%ADD80C,0.0550*%
%ADD81C,0.0550*%
*
G04 Plot Data ***
*
G54D37*
X0031400Y0293600D03*
X-0003900Y0307140D03*
X-0014630Y0291580D03*
X-0022410Y0303560D03*
X0069090Y0300690D03*
X0069290Y0307130D03*
X-0015520Y0321170D03*
X0027800Y0292700D03*
X0025000Y0284520D03*
X0027830Y0282100D03*
X0019700Y0281950D03*
X-0021460Y0324250D03*
X-0027610Y0295510D03*
G54D38*
X0070460Y0344480D03*
X-0029134Y0344488D03*
X0007080Y0344490D03*
X0040950D03*
X-0029134Y0277165D03*
X0007087D03*
X0040945D03*
X0070472D03*
G54D42*
X-0005200Y0289800D03*
X0066090Y0299060D03*
X0066280Y0305800D03*
X-0003900Y0311400D03*
X0007230Y0301190D03*
X-0013650Y0318180D03*
X0062030Y0302410D03*
X0054990Y0302300D03*
X0047810Y0302200D03*
X-0008700Y0308000D03*
X-0012220Y0310030D03*
X-0010100Y0286240D03*
X-0016500Y0305200D03*
X-0024620Y0329750D03*
G54D43*
X-0006200Y0289800D03*
X0066090Y0297060D03*
X0064280Y0305800D03*
X-0003900Y0313400D03*
X0009230Y0301190D03*
X-0013650Y0316180D03*
X0060030Y0302410D03*
X0052990Y0302300D03*
X0045810Y0302200D03*
X-0008700Y0310000D03*
X-0010220Y0310030D03*
X-0010100Y0288240D03*
X-0016500Y0307200D03*
X-0024620Y0327750D03*
G54D46*
X0031400Y0292600D03*
Y0291600D03*
Y0290600D03*
Y0289600D03*
Y0288600D03*
Y0287600D03*
Y0286600D03*
Y0285600D03*
Y0284600D03*
Y0283600D03*
Y0282600D03*
X0034400D03*
Y0283600D03*
Y0284600D03*
Y0285600D03*
Y0286600D03*
Y0287600D03*
Y0288600D03*
Y0289600D03*
Y0290600D03*
Y0291600D03*
Y0292600D03*
Y0293600D03*
X-0002900Y0307140D03*
X-0001900D03*
X-0000900D03*
X0000100D03*
X0001100D03*
X0002100D03*
Y0310140D03*
X0001100D03*
X0000100D03*
X-0000900D03*
X-0001900D03*
X-0002900D03*
X-0003900D03*
X-0014630Y0290580D03*
Y0289580D03*
Y0288580D03*
Y0287580D03*
Y0286580D03*
Y0285580D03*
Y0284580D03*
Y0283580D03*
X-0011630D03*
Y0284580D03*
Y0285580D03*
Y0286580D03*
Y0287580D03*
Y0288580D03*
Y0289580D03*
Y0290580D03*
Y0291580D03*
X-0022410Y0302560D03*
Y0301560D03*
Y0300560D03*
Y0299560D03*
Y0298560D03*
Y0297560D03*
Y0296560D03*
Y0295560D03*
Y0294560D03*
Y0293560D03*
Y0292560D03*
Y0291560D03*
Y0290560D03*
Y0289560D03*
Y0288560D03*
Y0287560D03*
Y0286560D03*
Y0285560D03*
Y0284560D03*
X-0016410D03*
Y0285560D03*
Y0286560D03*
Y0287560D03*
Y0288560D03*
Y0289560D03*
Y0290560D03*
Y0291560D03*
Y0292560D03*
Y0293560D03*
Y0294560D03*
Y0295560D03*
Y0296560D03*
Y0297560D03*
Y0298560D03*
Y0299560D03*
Y0300560D03*
Y0301560D03*
Y0302560D03*
Y0303560D03*
X-0005200Y0288600D03*
X-0001200D03*
Y0316200D03*
Y0312200D03*
X0036620Y0286480D03*
Y0290480D03*
X0041480Y0288280D03*
Y0292280D03*
X0003480Y0280580D03*
X0007480D03*
X0003560Y0281760D03*
X0007560D03*
X0003560Y0282860D03*
X0007560D03*
X0003540Y0284090D03*
X0007540D03*
X-0008700Y0280520D03*
X-0004700D03*
X-0008700Y0281720D03*
X-0004700D03*
X-0008700Y0282920D03*
X-0004700D03*
X-0008700Y0284120D03*
X-0004700D03*
X-0003030Y0301020D03*
Y0305020D03*
X-0025460Y0289560D03*
X-0029460D03*
X0064790Y0304680D03*
Y0300680D03*
X0070780Y0308160D03*
Y0304160D03*
X0064600Y0311130D03*
Y0307130D03*
X0070790Y0314060D03*
Y0310060D03*
X-0000480Y0301100D03*
Y0305100D03*
X-0004270Y0304960D03*
Y0300960D03*
X0002920Y0301100D03*
Y0305100D03*
X0005600Y0305190D03*
Y0301190D03*
X0004260Y0305100D03*
Y0301100D03*
X-0025270Y0297350D03*
Y0301350D03*
X-0025410Y0315000D03*
X-0029410D03*
X-0025390Y0313510D03*
X-0029390D03*
X-0025490Y0307800D03*
X-0029490D03*
X-0030840Y0328490D03*
Y0332490D03*
X0069090Y0301690D03*
Y0302690D03*
Y0303690D03*
X0066090D03*
Y0302690D03*
Y0301690D03*
Y0300690D03*
X0069290Y0308130D03*
Y0309130D03*
Y0310130D03*
X0066290D03*
Y0309130D03*
Y0308130D03*
Y0307130D03*
X-0016520Y0321170D03*
X-0017520D03*
X-0018520D03*
X-0019520D03*
X-0020520D03*
X-0021520D03*
X-0022520D03*
X-0023520D03*
Y0318170D03*
X-0022520D03*
X-0021520D03*
X-0020520D03*
X-0019520D03*
X-0018520D03*
X-0017520D03*
X-0016520D03*
X-0015520D03*
X0000100Y0313200D03*
Y0312200D03*
X0040630Y0286470D03*
X0039630D03*
X0036720Y0292180D03*
X0037720D03*
X0036720Y0293380D03*
X0037720D03*
X0027800Y0290700D03*
X0030140Y0291530D03*
Y0292530D03*
X0001370Y0286440D03*
Y0285440D03*
X-0002260Y0286850D03*
Y0285850D03*
X0025000Y0282520D03*
X0003900Y0334880D03*
Y0333880D03*
X0003260Y0315030D03*
X0004260D03*
X0012310Y0315000D03*
X0013310D03*
X0027820Y0284620D03*
X0028820D03*
X0029830Y0282100D03*
X0017700Y0281950D03*
X0021080D03*
Y0282950D03*
X-0023460Y0324250D03*
X-0019520Y0324300D03*
Y0323300D03*
X-0023910Y0287920D03*
X-0024910D03*
X-0023940Y0283340D03*
X-0024940D03*
X-0025610Y0295510D03*
G54D47*
X0083749Y0278352D03*
Y0280352D03*
Y0282352D03*
Y0284352D03*
Y0286352D03*
Y0288352D03*
Y0290352D03*
Y0292352D03*
Y0294352D03*
Y0296352D03*
Y0298352D03*
Y0300352D03*
Y0302352D03*
Y0304352D03*
Y0306352D03*
Y0308352D03*
Y0310352D03*
Y0312352D03*
Y0314352D03*
Y0316352D03*
Y0318352D03*
Y0320352D03*
Y0322352D03*
Y0324352D03*
Y0326352D03*
Y0328352D03*
Y0330352D03*
Y0332352D03*
Y0334352D03*
Y0336352D03*
Y0338352D03*
Y0340352D03*
Y0342352D03*
Y0344352D03*
G54D50*
X-0024920Y0286560D03*
Y0284560D03*
G54D51*
X0076700Y0329700D03*
X0073700D03*
X0076710Y0328410D03*
X0073710D03*
G54D52*
X0057900Y0308800D03*
Y0330800D03*
X0033930Y0339570D03*
Y0312970D03*
X0047930Y0323570D03*
Y0325570D03*
Y0331570D03*
Y0333570D03*
X0017930Y0322570D03*
Y0324570D03*
Y0326570D03*
X0014320Y0294300D03*
X0012320D03*
X0012310Y0310600D03*
X0010310D03*
X0072540Y0338400D03*
Y0336400D03*
Y0342400D03*
Y0340400D03*
X0055180Y0342660D03*
Y0333660D03*
X0061800Y0342630D03*
Y0333630D03*
X0073740Y0324420D03*
Y0315420D03*
G54D53*
X0037590Y0282570D03*
Y0283570D03*
X0040640Y0282620D03*
Y0283620D03*
X-0009290Y0315600D03*
X-0010290D03*
X-0001670Y0335880D03*
Y0334880D03*
X0011310Y0289500D03*
X0012310D03*
X0018720Y0289520D03*
X0019720D03*
X0026010Y0287160D03*
X0027010D03*
X-0013600Y0308040D03*
Y0309040D03*
Y0310040D03*
X-0013680Y0302560D03*
Y0301560D03*
Y0300560D03*
Y0299560D03*
Y0298560D03*
Y0297560D03*
Y0296560D03*
Y0295560D03*
X-0008680Y0303560D03*
X-0009680Y0302560D03*
X-0008680D03*
X-0009680Y0301560D03*
X-0008680D03*
X-0009680Y0300560D03*
X-0008680D03*
X-0009680Y0299560D03*
Y0298560D03*
X-0008680D03*
X-0009680Y0297560D03*
X-0008680D03*
X-0009680Y0296560D03*
X-0008680D03*
X-0011980Y0321210D03*
X-0010980Y0322210D03*
X-0011980D03*
X-0010980Y0323210D03*
X-0011980D03*
X-0010980Y0324210D03*
X-0011980D03*
X-0010980Y0325210D03*
X-0011980D03*
X-0030800Y0301709D03*
X-0030900Y0319609D03*
Y0313509D03*
Y0307709D03*
X-0030850Y0337589D03*
G54D60*
X0037590Y0281570D03*
X0040640Y0281620D03*
X-0008290Y0315600D03*
X-0001670Y0336880D03*
X0010310Y0289500D03*
X0017720Y0289520D03*
X0025010Y0287160D03*
X-0013600Y0307040D03*
X-0013680Y0303560D03*
X-0009680D03*
X-0008680Y0299560D03*
X-0010980Y0321210D03*
X-0030800Y0300709D03*
X-0030900Y0318609D03*
Y0312509D03*
Y0306709D03*
X-0030850Y0336589D03*
G54D67*
X0006700Y0291500D03*
Y0296500D03*
X0000700D03*
X-0005720Y0336890D03*
X0012300Y0285760D03*
X0017710Y0285810D03*
X0015200Y0336300D03*
X0017200D03*
X0015200Y0334300D03*
X0009900Y0328320D03*
Y0326320D03*
X0007900Y0328320D03*
G54D68*
X0025030Y0293120D03*
X0003260Y0313500D03*
X0036550Y0285280D03*
X0037720Y0290980D03*
X0016200Y0310500D03*
X0002400Y0338380D03*
X0001300Y0305080D03*
X0062030Y0300680D03*
X0054990Y0300590D03*
X0047810Y0300560D03*
X0017200Y0334300D03*
X0007900Y0326320D03*
G54D69*
X0008880Y0336870D03*
X0003260Y0319910D03*
X0011090D03*
G54D70*
X-0005720Y0334890D03*
X0008880Y0333870D03*
X0010300Y0285760D03*
X0019710Y0285810D03*
X0006260Y0319910D03*
X0014090D03*
G54D71*
X0020530Y0293120D03*
X0007760Y0313500D03*
X0041050Y0285280D03*
X0037720Y0286480D03*
X0016200Y0315000D03*
X0002400Y0333880D03*
X0001300Y0300580D03*
X0057530Y0300680D03*
X0050490Y0300590D03*
X0043310Y0300560D03*
G54D72*
X0016320Y0294200D03*
X0014310Y0310500D03*
X0066240Y0340430D03*
X0077710Y0344350D03*
G54D73*
X0039130Y0289550D03*
X0039630Y0289050D03*
X0040130Y0289550D03*
X0004400Y0307280D03*
X0004900Y0306780D03*
X0005400Y0307280D03*
G54D74*
X0059050Y0293680D03*
Y0291680D03*
Y0289680D03*
X0062050D03*
Y0291680D03*
Y0293680D03*
Y0296680D03*
X0051990Y0293660D03*
Y0291660D03*
Y0289660D03*
X0054990D03*
Y0291660D03*
Y0293660D03*
Y0296660D03*
X0044790Y0293670D03*
Y0291670D03*
Y0289670D03*
X0047790D03*
Y0291670D03*
Y0293670D03*
Y0296670D03*
G54D75*
X0059050Y0296680D03*
X0051990Y0296660D03*
X0044790Y0296670D03*
G54D76*
X0000700Y0291500D03*
G54D77*
X0050900Y0317800D03*
Y0319800D03*
X0065900Y0317800D03*
Y0321800D03*
Y0319800D03*
G54D80*
X-0003240Y0279830D03*
X-0027330Y0302540D03*
X0075540Y0314400D03*
X0073960Y0310460D03*
X0075600Y0331690D03*
X0075900Y0287900D03*
X0072960Y0294420D03*
X0073500Y0298610D03*
X0073060Y0296420D03*
X-0014700Y0324210D03*
X0074210Y0300330D03*
X0076550Y0303890D03*
X0076230Y0316420D03*
X0074000Y0285470D03*
X0077230Y0332350D03*
X0073500Y0308390D03*
X0074490Y0312410D03*
X0074850Y0286680D03*
X0072920Y0306420D03*
X0073120Y0284690D03*
X0076900Y0292400D03*
X0074900Y0302400D03*
G54D81*
X0002240Y0279830D03*
X0002530Y0284460D03*
X0076700Y0290400D03*
X-0003340Y0284440D03*
M02*
