*
G04 Mass Parameters ***
*
G04 Image ***
*
%ING:\DRM V3R5\DRM1-33_N.TOP*%
%ICAS*%
%MOIN*%
%IPPOS*%
%ASAXBY*%
G74*%FSLAN2X34Y34*%
*
G04 Aperture Definitions ***
*
%ADD10C,0.0790*%
%ADD11R,0.0700X0.0700*%
%ADD12C,0.1500*%
%ADD13C,0.0650*%
%ADD14R,0.0650X0.0650*%
%ADD15R,0.0790X0.0790*%
%ADD16C,0.0580*%
%ADD17R,0.0580X0.0580*%
%ADD18C,0.0690*%
%ADD19R,0.0690X0.0690*%
%ADD20C,0.0700*%
%ADD21C,0.1000*%
%ADD22R,0.1000X0.1000*%
%ADD23C,0.0550*%
%ADD24C,0.0450*%
%ADD25C,0.1200*%
%ADD26C,0.0750*%
%ADD27O,0.1000X0.0250*%
%ADD28R,0.1000X0.0250*%
%ADD29C,0.0500*%
%ADD30C,0.0200*%
%ADD31C,0.0500*%
%ADD32C,0.0300*%
%ADD33C,0.0500*%
%ADD34C,0.0140*%
%ADD35C,0.0140*%
*
G04 Plot Data ***
*
G54D29*
G01X0034390Y0292590D02*
X0034400Y0292600D01*
X0037720Y0293380D02*
Y0292180D01*
Y0290980D01*
X0021080Y0281950D02*
X0019700D01*
X0019720Y0289520D02*
Y0285820D01*
X0019710Y0285810D01*
X0019700Y0281950D02*
X0019720Y0281970D01*
Y0285800D01*
X0019710Y0285810D01*
X0041480Y0292280D02*
Y0293630D01*
X0040320Y0294790D01*
X0037720D01*
Y0293380D01*
X0020530Y0293120D02*
X0019940D01*
X0019920Y0293100D01*
X0019700D01*
Y0289510D01*
X0019710D01*
X0019720Y0289520D01*
X0033320Y0294810D02*
X0037730D01*
X0037720Y0294800D01*
Y0293380D01*
Y0294800D01*
X0037730Y0294810D01*
X0020320D01*
X0019690Y0294180D01*
Y0293120D01*
X0020530D01*
X-0008700Y0308000D02*
X-0008680Y0307980D01*
Y0303560D01*
X0066280Y0307120D02*
Y0305800D01*
X-0013610Y0310030D02*
X-0012220D01*
X-0013650Y0318180D02*
X-0015510D01*
X-0005720Y0334890D02*
X-0001680D01*
X-0001670Y0334880D01*
X-0024620Y0329750D02*
Y0331480D01*
X-0005750D01*
X-0005720Y0331510D01*
Y0334890D01*
X-0030900Y0318609D02*
X-0028490D01*
Y0312597D01*
X-0028579Y0312509D02*
X-0030900D01*
X-0016460Y0303540D02*
Y0305160D01*
X-0016500Y0305200D01*
X-0015520Y0318170D02*
X-0015510Y0318160D01*
Y0303560D01*
X-0016410D01*
X-0013600Y0310040D02*
X-0015350D01*
X-0015510Y0309880D01*
Y0303560D01*
X-0016410D01*
X-0030800Y0300709D02*
X-0028549D01*
X-0028490Y0300680D02*
Y0295510D01*
X-0027610D01*
X-0030900Y0306709D02*
X-0028490D01*
Y0295510D01*
X-0027610D01*
X-0008680Y0296560D02*
X-0005720D01*
Y0295140D01*
X-0006300Y0294560D01*
X-0016410D01*
X-0008680Y0296560D02*
X-0005750D01*
X-0005720Y0296590D01*
Y0303620D01*
X0004230D01*
X0004250Y0303600D01*
Y0301110D01*
X0004260Y0301100D01*
X0064600Y0307130D02*
X0062840D01*
X0062040Y0306330D01*
Y0303630D01*
X0062030Y0303620D01*
Y0302410D01*
X-0008680Y0296560D02*
X-0005750D01*
X-0005720Y0296590D01*
Y0303620D01*
X-0005820D01*
Y0303630D01*
X-0008610D01*
X-0008680Y0303560D01*
X-0030900Y0312509D02*
X-0028579D01*
X-0028490Y0312597D02*
Y0306709D01*
X-0030900D01*
X-0008680Y0303560D02*
X-0008610Y0303630D01*
X-0005700D01*
Y0310140D01*
X-0003900D01*
X-0005720Y0334890D02*
Y0310140D01*
X-0003900D01*
X-0013650Y0318180D02*
X-0013660Y0318170D01*
X-0013640Y0318150D01*
X-0005720D01*
Y0310140D01*
X-0003900D01*
X-0005720Y0334890D02*
Y0318160D01*
X-0002060D01*
X-0001200Y0317300D01*
Y0316200D01*
X-0030840Y0328490D02*
X-0028560D01*
X-0028510Y0328440D02*
Y0326890D01*
X-0028500Y0326900D01*
Y0318609D01*
X-0030900D01*
X-0024620Y0329750D02*
Y0331480D01*
X-0027170D01*
X-0028510Y0330140D01*
Y0328440D01*
X-0028560Y0328490D02*
X-0030840D01*
X0054990Y0302300D02*
Y0303620D01*
X0059970D01*
X0059980Y0303610D01*
X0060000D01*
Y0303620D01*
X0062020D01*
X0062030Y0303610D01*
Y0302410D01*
X0004260Y0301100D02*
X0004250Y0301110D01*
Y0303600D01*
X0004230Y0303620D01*
X0006600D01*
X0006610Y0303630D01*
X0006620Y0303620D01*
X0047810D01*
Y0302200D01*
X-0027610Y0295510D02*
X-0028490D01*
X-0028500Y0295500D01*
Y0281400D01*
X-0025460Y0278360D01*
X-0007040D01*
X-0006150Y0279250D01*
Y0285190D01*
X-0005490Y0285850D01*
X-0002260D01*
X0066290Y0307130D02*
X0064600D01*
X-0013680Y0303560D02*
X-0016410D01*
X0047810Y0302200D02*
Y0303620D01*
X0054990D01*
Y0302300D01*
X0004260Y0301100D02*
X0004300Y0301140D01*
X0005550D01*
X0005600Y0301190D01*
X0066090Y0300690D02*
X0064800D01*
X-0011630Y0283580D02*
X-0011010D01*
X-0010100Y0284490D01*
Y0286240D01*
X-0003900Y0311400D02*
Y0310140D01*
X-0005700Y0310100D02*
Y0310140D01*
X-0003900D01*
X-0005140Y0318170D02*
X-0005680D01*
X-0005690Y0318160D01*
X-0002060D01*
X-0001200Y0317300D01*
Y0316200D01*
X-0028510Y0326870D02*
Y0326890D01*
X-0028500Y0326900D01*
Y0318609D01*
X-0030900D01*
X-0002260Y0285850D02*
X-0002250Y0285840D01*
X0066090Y0300690D02*
Y0299060D01*
X0047810Y0302200D02*
Y0300560D01*
X0054990Y0302300D02*
Y0300590D01*
X0062030Y0302410D02*
Y0300680D01*
X0064790D02*
X0062030D01*
X0007230Y0301190D02*
X0005600D01*
X-0003900Y0310140D02*
X-0005720D01*
Y0318150D01*
X-0005700D01*
X-0005690Y0318160D01*
X-0002060D01*
X-0001200Y0317300D01*
Y0316200D01*
X-0027610Y0295510D02*
X-0028490D01*
Y0300680D01*
Y0300709D02*
Y0306709D01*
X-0030900D01*
X-0003900Y0310140D02*
X-0005700D01*
Y0310100D01*
X-0005720D02*
Y0303630D01*
X-0008610D01*
X-0008680Y0303560D01*
X-0008610Y0303630D01*
X-0005720D01*
Y0296590D01*
X-0005750Y0296560D01*
X-0008680D01*
X-0030900Y0306709D02*
X-0030889Y0306720D01*
X-0028510D01*
X-0028490Y0306740D01*
Y0306709D01*
X-0030900D01*
X0017930Y0324570D02*
X0017900Y0324600D01*
X0009290D01*
X0008530Y0323840D01*
Y0319910D01*
X0011090D01*
X-0015520Y0318170D02*
X-0015510Y0318160D01*
Y0310030D01*
X-0015500Y0310040D01*
X-0013600D01*
X-0008680Y0303560D02*
X-0008610Y0303630D01*
X-0005720D01*
Y0310140D01*
X-0003900D01*
X-0005720Y0334890D02*
X-0005680Y0334850D01*
X-0005690Y0334840D01*
Y0331540D01*
X-0005720Y0331510D01*
Y0334890D01*
X-0028500Y0312900D02*
Y0318609D01*
X-0030900D01*
X0010300Y0285760D02*
X0010310Y0285770D01*
Y0289500D01*
X0017710Y0285810D02*
Y0288190D01*
X0018430D01*
X0018720Y0288480D01*
Y0289520D01*
X0013310Y0315000D02*
Y0317550D01*
X0014090Y0318330D01*
Y0319910D01*
X0006260D02*
X0011090D01*
X0004260Y0315030D02*
X0008530D01*
Y0319910D01*
X0011090D01*
X0010310Y0289500D02*
Y0288180D01*
X0010320Y0288190D01*
X0014320D01*
Y0294300D01*
X0008880Y0333870D02*
X0010980D01*
X0013410Y0336300D01*
X0015200D01*
X0003260Y0319910D02*
Y0325190D01*
X0004380Y0326310D01*
X0007890D01*
X0007900Y0326320D01*
X0025030Y0293120D02*
Y0287180D01*
X0025010Y0287160D01*
X0017710Y0285810D02*
Y0288190D01*
X0014320D01*
Y0294300D01*
X0016200Y0310500D02*
X0014310D01*
X0010310Y0310600D02*
X0010210Y0310500D01*
X0008600D01*
X0007760Y0311340D01*
Y0313500D01*
X0012310Y0315000D02*
X0012280Y0315030D01*
X0004260D01*
X0016200Y0315000D02*
X0013310D01*
X0012310D02*
Y0310600D01*
X0003260Y0315030D02*
Y0313500D01*
X-0030850Y0336589D02*
Y0332500D01*
X0003900Y0333880D02*
X0003910Y0333870D01*
X0008880D01*
X0016300Y0315000D02*
X0016200D01*
X-0012220Y0310030D02*
X-0013610D01*
X-0013680Y0310040D02*
X-0013600D01*
X0002400Y0338380D02*
X0001050D01*
X0001040Y0338370D01*
X-0001300D01*
X-0001670Y0338000D01*
Y0336880D01*
X0011090Y0319910D02*
X0008530D01*
Y0319990D01*
X0008450Y0319910D01*
X0006260D01*
X0065900Y0319800D02*
X0064800D01*
X0064300Y0320300D01*
Y0339900D01*
X0064800Y0340400D01*
X0066200D01*
X0066230Y0340430D01*
X0066240D01*
X0010320Y0287490D02*
X0010310Y0287500D01*
Y0289500D01*
X0025010Y0287160D02*
Y0284530D01*
X0025000Y0284520D01*
X0047930Y0323590D02*
Y0323570D01*
X0003900Y0333880D02*
X0002400D01*
X0003260Y0319910D02*
Y0315030D01*
X0007900Y0328320D02*
Y0329370D01*
X0008340Y0329810D01*
X0017200D01*
X0017900Y0329110D01*
Y0326600D01*
X0017930Y0326570D01*
G54D30*
G01X0002530Y0284460D02*
Y0284120D01*
X0002110Y0283700D01*
X0001370D01*
Y0280700D02*
X0001990D01*
X0002240Y0280450D01*
Y0279830D01*
X0002530Y0284460D02*
Y0284120D01*
X0002110Y0283700D01*
X0001370D01*
X0002530Y0284460D02*
Y0284120D01*
X0002110Y0283700D01*
X0001370D01*
X0066290Y0307130D02*
X0066280Y0307120D01*
X-0013600Y0310040D02*
X-0013610Y0310030D01*
X-0015510Y0318180D02*
X-0015520Y0318170D01*
X-0028490Y0312597D02*
X-0028579Y0312509D01*
X-0016410Y0303560D02*
X-0016430Y0303540D01*
X-0016460D01*
X-0028549Y0300709D02*
X-0028520Y0300680D01*
X-0028490D01*
X-0028579Y0312509D02*
X-0028490Y0312597D01*
X-0028560Y0328490D02*
X-0028510Y0328440D01*
X-0028560Y0328490D01*
X0076700Y0290400D02*
Y0283930D01*
X0074340Y0281570D01*
X0043800D01*
X0043410Y0281960D01*
Y0294180D01*
X0043940Y0294710D01*
X0047430D01*
X0047790Y0294350D01*
Y0293670D01*
X-0024920Y0284560D02*
Y0285290D01*
X-0024650Y0285560D01*
X-0022410D01*
X0064800Y0300690D02*
X0064790Y0300680D01*
X-0005770Y0308680D02*
X-0005740Y0308710D01*
X-0005450Y0310040D02*
X-0005510Y0310100D01*
X-0005700D01*
X-0003340Y0284440D02*
Y0284080D01*
X-0002960Y0283700D01*
X-0002250D01*
X-0002960D01*
X-0003340Y0284080D01*
Y0284440D01*
X-0003240Y0279830D02*
Y0280320D01*
X-0002860Y0280700D01*
X-0002250D01*
X-0003340Y0284440D02*
Y0284080D01*
X-0002960Y0283700D01*
X-0002250D01*
X-0015520Y0321170D02*
Y0325480D01*
X-0014470Y0326530D01*
X-0009900D01*
X-0009290Y0325920D01*
Y0324080D01*
X-0010160Y0323210D01*
X-0010980D01*
X-0011980D02*
Y0323200D01*
X-0014710Y0320470D01*
X-0016340D01*
X-0016520Y0320650D01*
Y0321170D01*
X0001300Y0305080D02*
Y0305100D01*
X-0000480D01*
X-0022410Y0286560D02*
X-0024920D01*
X-0028490Y0300680D02*
X-0028460D01*
X-0028459Y0300681D01*
Y0300709D01*
X-0028490D01*
X0004900Y0306780D02*
X0004260Y0306140D01*
Y0305100D01*
X-0005700Y0310100D02*
X-0005720D01*
X0036620Y0286480D02*
X0036610Y0286470D01*
X0037140D01*
Y0285400D01*
X0037020Y0285280D01*
X0036550D01*
X0002920Y0305100D02*
X0001300D01*
Y0305080D01*
X-0018520Y0318170D02*
X-0018510Y0318160D01*
Y0312600D01*
X-0018200Y0312290D01*
Y0301040D01*
X-0017720Y0300560D01*
X-0016410D01*
X-0009680Y0302560D02*
X-0010250D01*
X-0011200Y0303510D01*
Y0311900D01*
X-0009290Y0313810D01*
Y0315600D01*
X-0016520Y0318170D02*
Y0312240D01*
X-0017400Y0311360D01*
Y0302870D01*
X-0017090Y0302560D01*
X-0016410D01*
X-0000480Y0305100D02*
X-0002950D01*
X-0003030Y0305020D01*
X0036620Y0286480D02*
Y0287270D01*
X0036290Y0287600D01*
X0034400D01*
X-0011980Y0322210D02*
X-0011990D01*
X-0014400Y0319800D01*
X-0021270D01*
X-0021520Y0320050D01*
Y0321170D01*
X0047790Y0293670D02*
Y0294350D01*
X0047430Y0294710D01*
X0043940D01*
X0043410Y0294180D01*
Y0281960D01*
X0043800Y0281570D01*
X0074340D01*
X0076700Y0283930D01*
Y0290400D01*
X0066090Y0302690D02*
X0066570D01*
X0066900Y0302360D01*
Y0298710D01*
X0066490Y0298300D01*
X-0002400D01*
X-0003100Y0297600D01*
Y0292400D01*
X-0003790Y0291710D01*
X-0006970D01*
X-0007360Y0291320D01*
Y0279890D01*
X-0007850Y0279400D01*
X-0023900D01*
X-0027400Y0282900D01*
Y0289600D01*
X-0026440Y0290560D01*
X-0022410D01*
X0004260Y0305100D02*
X0002920D01*
X0073740Y0324420D02*
X0073730Y0324410D01*
X0075860D01*
X0078300Y0321970D01*
Y0284013D01*
X0074897Y0280610D01*
X0042980D01*
X0042280Y0281310D01*
Y0290340D01*
X0041840Y0290780D01*
X0039560D01*
X0039110Y0290330D01*
Y0289570D01*
X0039130Y0289550D01*
X0037720Y0286480D02*
X0039620D01*
X0039630Y0286470D01*
X-0009290Y0315600D02*
X-0010290D01*
X-0004270Y0300960D02*
X-0003090D01*
X-0003030Y0301020D01*
X-0017520Y0318170D02*
X-0017530Y0318160D01*
Y0312600D01*
X-0017800Y0312330D01*
Y0301900D01*
X-0017460Y0301560D01*
X-0016410D01*
X0041480Y0288280D02*
X0041490Y0288270D01*
X0035930D01*
X0035600Y0288600D01*
X0034400D01*
X0076700Y0329700D02*
Y0328420D01*
X0076710Y0328410D01*
X0005400Y0307280D02*
Y0307800D01*
X0005000Y0308200D01*
X-0003640D01*
X-0003900Y0307940D01*
Y0307140D01*
X-0013680Y0296560D02*
X-0012060D01*
X-0011060Y0297560D01*
X-0009680D01*
X0040640Y0281620D02*
X0037640D01*
X0037590Y0281570D01*
X0066290Y0309130D02*
X0066890D01*
X0067300Y0308720D01*
Y0298270D01*
X0066860Y0297830D01*
X-0001970D01*
X-0002600Y0297200D01*
Y0291800D01*
X-0003230Y0291170D01*
X-0006330D01*
X-0006900Y0290600D01*
Y0279730D01*
X-0007630Y0279000D01*
X-0024600D01*
X-0027900Y0282300D01*
Y0291500D01*
X-0026880Y0292520D01*
Y0302090D01*
X-0027330Y0302540D01*
X-0029490Y0307800D02*
X-0030809D01*
X-0030900Y0307709D01*
X-0030841Y0332489D02*
X-0030840Y0332490D01*
X-0030850Y0332500D02*
X-0030840Y0332490D01*
X-0009680Y0300560D02*
X-0011320D01*
X-0013320Y0302560D01*
X-0013680D01*
X-0019520Y0318170D02*
X-0019530Y0318160D01*
Y0312300D01*
X-0018600Y0311370D01*
Y0300120D01*
X-0018040Y0299560D01*
X-0016410D01*
X0000610Y0305110D02*
X0000620Y0305100D01*
X-0000480D01*
X-0024920Y0284560D02*
X-0024940Y0284540D01*
Y0283340D01*
X-0014630Y0284580D02*
X-0016390D01*
X-0016410Y0284560D01*
X-0011630Y0288580D02*
X-0012340D01*
X-0013060Y0289300D01*
Y0292290D01*
X-0012280Y0293070D01*
X-0005230D01*
X-0004200Y0294100D01*
Y0298800D01*
X-0003700Y0299300D01*
X0050110D01*
X0050490Y0299680D01*
Y0300590D01*
X0075540Y0314400D02*
Y0313330D01*
X0075550Y0313320D01*
Y0305000D01*
X0071710Y0301160D01*
Y0290260D01*
X0068750Y0287300D01*
X0058170D01*
X0057600Y0287870D01*
Y0294090D01*
X0058120Y0294610D01*
X0061800D01*
X0062050Y0294360D01*
Y0293680D01*
X-0009680Y0299560D02*
X-0011310D01*
X-0012310Y0300560D01*
X-0013680D01*
X-0030800Y0301709D02*
X-0031411D01*
X-0031600Y0301520D01*
Y0290300D01*
X-0030860Y0289560D01*
X-0029460D01*
X-0019520Y0323300D02*
Y0321170D01*
X0069290Y0309130D02*
X0070590D01*
X0070790Y0309330D01*
Y0310060D01*
X0073960Y0310460D02*
X0073970D01*
X0074320Y0310110D01*
Y0305180D01*
X0070800Y0301660D01*
Y0290660D01*
X0068440Y0288300D01*
X0059600D01*
X0059050Y0288850D01*
Y0289680D01*
X0000100Y0307140D02*
X-0000900D01*
X-0002250Y0283200D02*
X-0003160D01*
X-0004070Y0284110D01*
X-0004690D01*
X-0004700Y0284120D01*
X-0013680Y0298560D02*
X-0016410D01*
X-0013610Y0310030D02*
X-0013640Y0310000D01*
X-0013680Y0310040D01*
X0075600Y0331690D02*
X0075590D01*
X0075580Y0331700D01*
X0069690D01*
X0068530Y0330540D01*
Y0308380D01*
X0068780Y0308130D01*
X0069290D01*
X0040640Y0282620D02*
X0040040D01*
X0038190Y0284470D01*
X0035530D01*
X0034400Y0285600D01*
X0044790Y0291670D02*
X0043820Y0290700D01*
Y0282680D01*
X0044480Y0282020D01*
X0074140D01*
X0075670Y0283550D01*
Y0287670D01*
X0075900Y0287900D01*
X0036720Y0292180D02*
X0036050D01*
X0035860Y0291990D01*
Y0290000D01*
X0035460Y0289600D01*
X0034400D01*
X0072960Y0294420D02*
X0072900Y0294360D01*
Y0290110D01*
X0069190Y0286400D01*
X0055490D01*
X0054990Y0286900D01*
Y0289660D01*
X0051990D02*
Y0286880D01*
X0053470Y0285400D01*
X0069580D01*
X0074100Y0289920D01*
Y0298010D01*
X0073500Y0298610D01*
X-0022410Y0295560D02*
X-0022460Y0295510D01*
X-0025610D01*
X-0000480Y0305100D02*
X0000620D01*
X0000640Y0305080D01*
X0001300D01*
X-0024910Y0287920D02*
Y0286570D01*
X-0024920Y0286560D01*
X0073060Y0296420D02*
X0073620Y0295860D01*
Y0290120D01*
X0069410Y0285910D01*
X0054260D01*
X0053330Y0286840D01*
Y0292320D01*
X0051990Y0293660D01*
X0066090Y0302690D02*
X0065150D01*
X0064790Y0303050D01*
Y0304680D01*
X-0011980Y0324210D02*
X-0011990Y0324220D01*
X-0014690D01*
X-0014700Y0324210D01*
X0051990Y0291660D02*
X0051010Y0290680D01*
Y0286240D01*
X0052350Y0284900D01*
X0069740D01*
X0074600Y0289760D01*
Y0299950D01*
X0074220Y0300330D01*
X0074210D01*
X-0025270Y0297350D02*
X-0025610Y0297010D01*
Y0295510D01*
X-0013680Y0301560D02*
X-0016410D01*
X-0010980Y0321210D02*
Y0319500D01*
X-0011580Y0318900D01*
X-0022210D01*
X-0022520Y0318590D01*
Y0318170D01*
X-0009680Y0298560D02*
X-0013680D01*
X-0008700Y0284120D02*
X-0009580D01*
X-0012210Y0281490D01*
X-0018280D01*
X-0020200Y0283410D01*
Y0302790D01*
X-0020970Y0303560D01*
X-0022410D01*
X0054990Y0291660D02*
X0055990Y0292660D01*
Y0294480D01*
X0055280Y0295190D01*
X0050240D01*
X0049610Y0294560D01*
Y0284430D01*
X0050090Y0283950D01*
X0070200D01*
X0075800Y0289550D01*
Y0303140D01*
X0076550Y0303890D01*
X0031400Y0284600D02*
X0030770D01*
X0030530Y0284360D01*
Y0280960D01*
X0029700Y0280130D01*
X0007930D01*
X0007480Y0280580D01*
X-0025490Y0307800D02*
X-0020940D01*
X-0019800Y0306660D01*
Y0283750D01*
X-0017940Y0281890D01*
X-0013050D01*
X-0012650Y0282290D01*
Y0284360D01*
X-0012430Y0284580D01*
X-0011630D01*
X-0022410Y0292560D02*
X-0025880D01*
X-0026500Y0293180D01*
Y0316330D01*
X-0026120Y0316710D01*
X-0021890D01*
X-0021520Y0317080D01*
Y0318170D01*
X-0000900Y0310140D02*
X-0001900D01*
X0076230Y0316420D02*
Y0304890D01*
X0072150Y0300810D01*
Y0289990D01*
X0069040Y0286880D01*
X0057580D01*
X0057130Y0287330D01*
Y0294720D01*
X0057570Y0295160D01*
X0062030D01*
X0063150Y0294040D01*
Y0292050D01*
X0062770Y0291670D01*
X0062050D01*
Y0291680D01*
X0066290Y0309130D02*
X0064940D01*
X0064600Y0309470D01*
Y0311130D01*
X-0003690Y0300950D02*
Y0300960D01*
X-0004270D01*
X-0014630Y0289580D02*
X-0016390D01*
X-0016410Y0289560D01*
X-0013680Y0302560D02*
X-0016410D01*
X-0014630Y0285580D02*
X-0016390D01*
X-0016410Y0285560D01*
X-0002250Y0282700D02*
X-0002280Y0282730D01*
X-0004510D01*
X-0004700Y0282920D01*
X0007560Y0282860D02*
X0007520Y0282820D01*
X0006330D01*
X0005690Y0282180D01*
Y0279630D01*
X0006150Y0279170D01*
X0031490D01*
X0032490Y0280170D01*
Y0286100D01*
X0031990Y0286600D01*
X0031400D01*
X-0011630Y0289580D02*
X-0012060D01*
X-0012440Y0289960D01*
Y0292130D01*
X-0012150Y0292420D01*
X-0004980D01*
X-0003700Y0293700D01*
Y0298300D01*
X-0003200Y0298800D01*
X0056970D01*
X0057510Y0299340D01*
Y0300660D01*
X0057530Y0300680D01*
X-0025410Y0315000D02*
X-0023460D01*
X-0019000Y0310540D01*
Y0284150D01*
X-0017540Y0282690D01*
X-0013820D01*
X-0013460Y0283050D01*
Y0286150D01*
X-0013030Y0286580D01*
X-0011630D01*
X0044790Y0293670D02*
X0045800Y0292660D01*
Y0283200D01*
X0046100Y0282900D01*
X0073410D01*
X0074000Y0283490D01*
Y0285470D01*
X0005400Y0307280D02*
X0005600Y0307080D01*
Y0305190D01*
X-0030900Y0319609D02*
X-0031441D01*
X-0031650Y0319400D01*
Y0315380D01*
X-0031270Y0315000D01*
X-0029410D01*
X-0020520Y0321170D02*
Y0323890D01*
X-0020880Y0324250D01*
X-0021460D01*
X0069090Y0301690D02*
X0068440D01*
X0067850Y0302280D01*
Y0330980D01*
X0069220Y0332350D01*
X0077230D01*
X-0010240Y0315650D02*
X-0010290Y0315600D01*
X-0014630Y0291580D02*
X-0016390D01*
X-0016410Y0291560D01*
X0036720Y0293380D02*
X0035600D01*
X0035370Y0293150D01*
Y0290940D01*
X0035030Y0290600D01*
X0034400D01*
Y0284600D02*
X0036430Y0282570D01*
X0037590D01*
X-0014630Y0286580D02*
X-0016390D01*
X-0016410Y0286560D01*
X0059050Y0293680D02*
X0060840Y0291890D01*
Y0289330D01*
X0061400Y0288770D01*
X0068150D01*
X0070360Y0290980D01*
Y0301930D01*
X0073750Y0305320D01*
Y0308140D01*
X0073500Y0308390D01*
X-0029390Y0313510D02*
X-0029391Y0313509D01*
X-0030900D01*
X-0013680Y0296560D02*
X-0016410D01*
X-0022520Y0321170D02*
Y0326250D01*
X-0021670Y0327100D01*
X-0009760D01*
X-0008720Y0326060D01*
Y0323310D01*
X-0009820Y0322210D01*
X-0010980D01*
X0059050Y0291680D02*
X0058040Y0290670D01*
Y0288120D01*
X0058360Y0287800D01*
X0068660D01*
X0071260Y0290400D01*
Y0301400D01*
X0074880Y0305020D01*
Y0312030D01*
X0074500Y0312410D01*
X0074490D01*
X0039130Y0289550D02*
X0036900D01*
X0036620Y0289830D01*
Y0290480D01*
X0043310Y0300560D02*
X0042470Y0299720D01*
X-0004080D01*
X-0004700Y0299100D01*
Y0294400D01*
X-0005400Y0293700D01*
X-0012410D01*
X-0013630Y0292480D01*
Y0288330D01*
X-0012880Y0287580D01*
X-0011630D01*
X0034400Y0283600D02*
X0036430Y0281570D01*
X0037590D01*
X0001370Y0283200D02*
X0002660D01*
X0003540Y0284080D01*
Y0284090D01*
X-0013680Y0299560D02*
X-0016410D01*
X0007540Y0284090D02*
X0007530Y0284080D01*
X0006200D01*
X0005190Y0283070D01*
Y0279210D01*
X0005710Y0278690D01*
X0031790D01*
X0032910Y0279810D01*
Y0286970D01*
X0032280Y0287600D01*
X0031400D01*
X-0011980Y0321210D02*
Y0319830D01*
X-0012500Y0319310D01*
X-0023210D01*
X-0023520Y0319000D01*
Y0318170D01*
X0037720Y0286480D02*
X0036620D01*
X-0014630Y0287580D02*
X-0016390D01*
X-0016410Y0287560D01*
X-0005200Y0289800D02*
Y0288600D01*
X-0013600Y0308040D02*
X-0012450D01*
X-0012240Y0307830D01*
Y0302540D01*
X-0011260Y0301560D01*
X-0009680D01*
X0044790Y0289670D02*
X0044770Y0289650D01*
Y0283400D01*
X0045700Y0282470D01*
X0073800D01*
X0074850Y0283520D01*
Y0286680D01*
X0062050Y0289680D02*
X0067990D01*
X0069840Y0291530D01*
Y0302040D01*
X0072940Y0305140D01*
Y0306400D01*
X0072920Y0306420D01*
X-0002250Y0282200D02*
X-0004220D01*
X-0004700Y0281720D01*
X0003560Y0281760D02*
X0002690D01*
X0002250Y0282200D01*
X0001370D01*
X-0013680Y0300560D02*
X-0016410D01*
X0003560Y0282860D02*
X0003400Y0282700D01*
X0001370D01*
X-0008700Y0280520D02*
X-0008720Y0280500D01*
X-0010660D01*
X-0010860Y0280300D01*
X-0019340D01*
X-0021400Y0282360D01*
Y0298150D01*
X-0021810Y0298560D01*
X-0022410D01*
X-0013680Y0297560D02*
X-0016410D01*
X0003480Y0280580D02*
X0002990D01*
X0001870Y0281700D01*
X0001370D01*
X-0025390Y0313510D02*
X-0023210D01*
X-0019410Y0309710D01*
Y0283890D01*
X-0017820Y0282300D01*
X-0013300D01*
X-0013060Y0282540D01*
Y0285180D01*
X-0012660Y0285580D01*
X-0011630D01*
Y0290580D02*
X-0011580Y0290530D01*
X-0008590D01*
X-0007800Y0289740D01*
Y0280220D01*
X-0008220Y0279800D01*
X-0023360D01*
X-0026900Y0283340D01*
Y0288100D01*
X-0025460Y0289540D01*
Y0289560D01*
X0007560Y0281760D02*
X0006720D01*
X0006210Y0281250D01*
Y0280020D01*
X0006610Y0279620D01*
X0031090D01*
X0032090Y0280620D01*
Y0285130D01*
X0031620Y0285600D01*
X0031400D01*
X0047790Y0289670D02*
Y0283960D01*
X0048410Y0283340D01*
X0072870D01*
X0073120Y0283590D01*
Y0284690D01*
X-0014630Y0288580D02*
X-0016390D01*
X-0016410Y0288560D01*
X-0008700Y0281720D02*
X-0010430D01*
X-0011450Y0280700D01*
X-0019010D01*
X-0020990Y0282680D01*
Y0299110D01*
X-0021480Y0299600D01*
X-0022370D01*
X-0022410Y0299560D01*
X-0014630Y0290580D02*
X-0016390D01*
X-0016410Y0290560D01*
X-0013680Y0295560D02*
X-0016410D01*
X-0008700Y0282920D02*
X-0010040D01*
X-0011860Y0281100D01*
X-0018410D01*
X-0020610Y0283300D01*
Y0300960D01*
X-0021210Y0301560D01*
X-0022410D01*
X0047790Y0291670D02*
X0048450D01*
X0048850Y0292070D01*
Y0294860D01*
X0048500Y0295210D01*
X0043530D01*
X0042940Y0294620D01*
Y0281640D01*
X0043480Y0281100D01*
X0074540D01*
X0077700Y0284260D01*
Y0291600D01*
X0076900Y0292400D01*
X-0022410Y0296560D02*
X-0022980D01*
X-0026140Y0299720D01*
Y0315680D01*
X-0025740Y0316080D01*
X-0020840D01*
X-0020520Y0316400D01*
Y0318170D01*
X0041480Y0288280D02*
X0041490Y0288290D01*
Y0289210D01*
X0041150Y0289550D01*
X0040130D01*
X-0004700Y0280520D02*
X-0004150D01*
X-0002970Y0281700D01*
X-0002250D01*
X-0001900Y0307140D02*
X-0002900D01*
X0074900Y0302400D02*
X0075200Y0302100D01*
Y0289690D01*
X0069910Y0284400D01*
X0051340D01*
X0049990Y0285750D01*
Y0293950D01*
X0050640Y0294600D01*
X0054660D01*
X0054990Y0294270D01*
Y0293660D01*
X0069090Y0302690D02*
Y0302700D01*
X0068440D01*
X0068230Y0302910D01*
Y0304240D01*
X0068550Y0304560D01*
X0070380D01*
X0070780Y0304160D01*
G54D32*
G01X0034400Y0292600D02*
X0033850D01*
X0033310Y0293140D01*
Y0294800D01*
X0033320Y0294810D01*
X0027030Y0287180D02*
X0027010Y0287160D01*
X-0002250Y0285840D02*
Y0284200D01*
X0073710Y0328410D02*
X0075100D01*
X0079100Y0324460D01*
Y0283820D01*
X0075452Y0280123D01*
X0034096D01*
X0033490Y0280730D01*
Y0289590D01*
X0031410D01*
X0031400Y0289600D01*
X0027010Y0287160D02*
Y0287150D01*
X0027770D01*
X0027780Y0287160D01*
Y0287200D01*
X0027790Y0287210D01*
Y0290690D01*
X0027800Y0290700D01*
X0031400Y0292600D02*
X0032860D01*
X0033490Y0291970D01*
Y0289630D01*
X0031430D01*
X0031400Y0289600D01*
X0027010Y0287160D02*
Y0281570D01*
X0026230Y0280790D01*
X0011980D01*
X0007330Y0285440D01*
X0001370D01*
X0027010Y0287160D02*
Y0287150D01*
X0027800D01*
X0027810Y0287140D01*
Y0284630D01*
X0027820Y0284620D01*
X0001370Y0284200D02*
X0000400D01*
X-0000100Y0283700D01*
Y0281680D01*
X0000380Y0281200D01*
X0001370D01*
X0031400Y0289600D02*
X0031390Y0289610D01*
X0027790D01*
Y0290690D01*
X0027800Y0290700D01*
X0030140Y0292530D02*
X0030130Y0292540D01*
Y0292600D01*
X0031400D01*
X0027820Y0284620D02*
X0027830Y0284610D01*
Y0282100D01*
X0001370Y0285440D02*
Y0284200D01*
X0030080Y0292590D02*
X0030090Y0292600D01*
X0031400D01*
X0030130Y0292510D02*
Y0292540D01*
X0030140Y0292530D01*
X0032290Y0289620D02*
X0031420D01*
X0031400Y0289600D01*
X0031370Y0289570D02*
X0031400Y0289600D01*
G54D10*
X0006700Y0291500D03*
Y0296500D03*
X0000700D03*
X-0005720Y0336890D03*
X0008880Y0336870D03*
X0012300Y0285760D03*
X0017710Y0285810D03*
X0003260Y0319910D03*
X0011090D03*
X0015200Y0336300D03*
X0017200D03*
X0015200Y0334300D03*
X0009900Y0328320D03*
Y0326320D03*
X0007900Y0328320D03*
G54D11*
X-0001670Y0336880D03*
X0010310Y0289500D03*
X0017720Y0289520D03*
X0025010Y0287160D03*
X0025030Y0293120D03*
X0003260Y0313500D03*
X0036550Y0285280D03*
X0037720Y0290980D03*
X0016200Y0310500D03*
X0002400Y0338380D03*
X0001300Y0305080D03*
X0062030Y0300680D03*
X0054990Y0300590D03*
X0047810Y0300560D03*
X0017200Y0334300D03*
X0007900Y0326320D03*
G54D12*
X0070460Y0344480D03*
X-0029134Y0344488D03*
X0007080Y0344490D03*
X0040950D03*
X-0029134Y0277165D03*
X0007087D03*
X0040945D03*
X0070472D03*
G54D13*
X0037590Y0282570D03*
Y0283570D03*
X0040640Y0282620D03*
Y0283620D03*
X-0009290Y0315600D03*
X-0010290D03*
X0031400Y0292600D03*
Y0291600D03*
Y0290600D03*
Y0289600D03*
Y0288600D03*
Y0287600D03*
Y0286600D03*
Y0285600D03*
Y0284600D03*
Y0283600D03*
Y0282600D03*
X0034400D03*
Y0283600D03*
Y0284600D03*
Y0285600D03*
Y0286600D03*
Y0287600D03*
Y0288600D03*
Y0289600D03*
Y0290600D03*
Y0291600D03*
Y0292600D03*
Y0293600D03*
X-0002900Y0307140D03*
X-0001900D03*
X-0000900D03*
X0000100D03*
X0001100D03*
X0002100D03*
Y0310140D03*
X0001100D03*
X0000100D03*
X-0000900D03*
X-0001900D03*
X-0002900D03*
X-0003900D03*
X-0014630Y0290580D03*
Y0289580D03*
Y0288580D03*
Y0287580D03*
Y0286580D03*
Y0285580D03*
Y0284580D03*
Y0283580D03*
X-0011630D03*
Y0284580D03*
Y0285580D03*
Y0286580D03*
Y0287580D03*
Y0288580D03*
Y0289580D03*
Y0290580D03*
Y0291580D03*
X-0022410Y0302560D03*
Y0301560D03*
Y0300560D03*
Y0299560D03*
Y0298560D03*
Y0297560D03*
Y0296560D03*
Y0295560D03*
Y0294560D03*
Y0293560D03*
Y0292560D03*
Y0291560D03*
Y0290560D03*
Y0289560D03*
Y0288560D03*
Y0287560D03*
Y0286560D03*
Y0285560D03*
Y0284560D03*
X-0016410D03*
Y0285560D03*
Y0286560D03*
Y0287560D03*
Y0288560D03*
Y0289560D03*
Y0290560D03*
Y0291560D03*
Y0292560D03*
Y0293560D03*
Y0294560D03*
Y0295560D03*
Y0296560D03*
Y0297560D03*
Y0298560D03*
Y0299560D03*
Y0300560D03*
Y0301560D03*
Y0302560D03*
Y0303560D03*
X-0005200Y0288600D03*
X-0001200D03*
Y0316200D03*
Y0312200D03*
X0036620Y0286480D03*
Y0290480D03*
X0041480Y0288280D03*
Y0292280D03*
X0003480Y0280580D03*
X0007480D03*
X0003560Y0281760D03*
X0007560D03*
X0003560Y0282860D03*
X0007560D03*
X0003540Y0284090D03*
X0007540D03*
X-0008700Y0280520D03*
X-0004700D03*
X-0008700Y0281720D03*
X-0004700D03*
X-0008700Y0282920D03*
X-0004700D03*
X-0008700Y0284120D03*
X-0004700D03*
X-0003030Y0301020D03*
Y0305020D03*
X-0025460Y0289560D03*
X-0029460D03*
X0064790Y0304680D03*
Y0300680D03*
X0070780Y0308160D03*
Y0304160D03*
X0064600Y0311130D03*
Y0307130D03*
X0070790Y0314060D03*
Y0310060D03*
X-0000480Y0301100D03*
Y0305100D03*
X-0004270Y0304960D03*
Y0300960D03*
X0002920Y0301100D03*
Y0305100D03*
X0005600Y0305190D03*
Y0301190D03*
X0004260Y0305100D03*
Y0301100D03*
X-0025270Y0297350D03*
Y0301350D03*
X-0025410Y0315000D03*
X-0029410D03*
X-0025390Y0313510D03*
X-0029390D03*
X-0025490Y0307800D03*
X-0029490D03*
X-0030840Y0328490D03*
Y0332490D03*
X0069090Y0301690D03*
Y0302690D03*
Y0303690D03*
X0066090D03*
Y0302690D03*
Y0301690D03*
Y0300690D03*
X0069290Y0308130D03*
Y0309130D03*
Y0310130D03*
X0066290D03*
Y0309130D03*
Y0308130D03*
Y0307130D03*
X-0016520Y0321170D03*
X-0017520D03*
X-0018520D03*
X-0019520D03*
X-0020520D03*
X-0021520D03*
X-0022520D03*
X-0023520D03*
Y0318170D03*
X-0022520D03*
X-0021520D03*
X-0020520D03*
X-0019520D03*
X-0018520D03*
X-0017520D03*
X-0016520D03*
X-0015520D03*
X0000100Y0313200D03*
Y0312200D03*
X0040630Y0286470D03*
X0039630D03*
X0036720Y0292180D03*
X0037720D03*
X0036720Y0293380D03*
X0037720D03*
X0027800Y0290700D03*
X0030140Y0291530D03*
Y0292530D03*
X0001370Y0286440D03*
Y0285440D03*
X-0002260Y0286850D03*
Y0285850D03*
X0025000Y0282520D03*
X0003900Y0334880D03*
Y0333880D03*
X0003260Y0315030D03*
X0004260D03*
X0012310Y0315000D03*
X0013310D03*
X0027820Y0284620D03*
X0028820D03*
X0029830Y0282100D03*
X0017700Y0281950D03*
X0021080D03*
Y0282950D03*
X-0023460Y0324250D03*
X-0019520Y0324300D03*
Y0323300D03*
X-0023910Y0287920D03*
X-0024910D03*
X-0023940Y0283340D03*
X-0024940D03*
X-0025610Y0295510D03*
G54D14*
X0037590Y0281570D03*
X0040640Y0281620D03*
X-0008290Y0315600D03*
X0031400Y0293600D03*
X-0003900Y0307140D03*
X-0014630Y0291580D03*
X-0022410Y0303560D03*
X0069090Y0300690D03*
X0069290Y0307130D03*
X-0015520Y0321170D03*
X0027800Y0292700D03*
X0025000Y0284520D03*
X0027830Y0282100D03*
X0019700Y0281950D03*
X-0021460Y0324250D03*
X-0027610Y0295510D03*
G54D15*
X0000700Y0291500D03*
X-0005720Y0334890D03*
X0008880Y0333870D03*
X0010300Y0285760D03*
X0019710Y0285810D03*
X0006260Y0319910D03*
X0014090D03*
G54D16*
X-0005200Y0289800D03*
X0066090Y0299060D03*
X0066280Y0305800D03*
X-0003900Y0311400D03*
X0007230Y0301190D03*
X-0013650Y0318180D03*
X0062030Y0302410D03*
X0054990Y0302300D03*
X0047810Y0302200D03*
X-0008700Y0308000D03*
X-0012220Y0310030D03*
X-0010100Y0286240D03*
X-0016500Y0305200D03*
X-0024620Y0329750D03*
G54D17*
X-0006200Y0289800D03*
X0066090Y0297060D03*
X0064280Y0305800D03*
X-0003900Y0313400D03*
X0009230Y0301190D03*
X-0013650Y0316180D03*
X0060030Y0302410D03*
X0052990Y0302300D03*
X0045810Y0302200D03*
X-0008700Y0310000D03*
X-0010220Y0310030D03*
X-0010100Y0288240D03*
X-0016500Y0307200D03*
X-0024620Y0327750D03*
G54D18*
X-0013600Y0308040D03*
Y0309040D03*
Y0310040D03*
X-0013680Y0302560D03*
Y0301560D03*
Y0300560D03*
Y0299560D03*
Y0298560D03*
Y0297560D03*
Y0296560D03*
Y0295560D03*
X-0008680Y0303560D03*
X-0009680Y0302560D03*
X-0008680D03*
X-0009680Y0301560D03*
X-0008680D03*
X-0009680Y0300560D03*
X-0008680D03*
X-0009680Y0299560D03*
Y0298560D03*
X-0008680D03*
X-0009680Y0297560D03*
X-0008680D03*
X-0009680Y0296560D03*
X-0008680D03*
X-0011980Y0321210D03*
X-0010980Y0322210D03*
X-0011980D03*
X-0010980Y0323210D03*
X-0011980D03*
X-0010980Y0324210D03*
X-0011980D03*
X-0010980Y0325210D03*
X-0011980D03*
X-0030800Y0301709D03*
X-0030900Y0319609D03*
Y0313509D03*
Y0307709D03*
X-0030850Y0337589D03*
G54D19*
X-0013600Y0307040D03*
X-0013680Y0303560D03*
X-0009680D03*
X-0008680Y0299560D03*
X-0010980Y0321210D03*
X-0030800Y0300709D03*
X-0030900Y0318609D03*
Y0312509D03*
Y0306709D03*
X-0030850Y0336589D03*
G54D20*
X0020530Y0293120D03*
X0007760Y0313500D03*
X0041050Y0285280D03*
X0037720Y0286480D03*
X0016200Y0315000D03*
X0002400Y0333880D03*
X0001300Y0300580D03*
X0057530Y0300680D03*
X0050490Y0300590D03*
X0043310Y0300560D03*
G54D21*
X0047930Y0323570D03*
Y0325570D03*
Y0331570D03*
Y0333570D03*
X0017930Y0322570D03*
Y0324570D03*
Y0326570D03*
X0059050Y0293680D03*
Y0291680D03*
Y0289680D03*
X0062050D03*
Y0291680D03*
Y0293680D03*
Y0296680D03*
X0051990Y0293660D03*
Y0291660D03*
Y0289660D03*
X0054990D03*
Y0291660D03*
Y0293660D03*
Y0296660D03*
X0044790Y0293670D03*
Y0291670D03*
Y0289670D03*
X0047790D03*
Y0291670D03*
Y0293670D03*
Y0296670D03*
X0014320Y0294300D03*
X0012320D03*
X0012310Y0310600D03*
X0010310D03*
X0072540Y0338400D03*
Y0336400D03*
Y0342400D03*
Y0340400D03*
X0055180Y0342660D03*
Y0333660D03*
X0061800Y0342630D03*
Y0333630D03*
X0073740Y0324420D03*
Y0315420D03*
G54D22*
X0059050Y0296680D03*
X0051990Y0296660D03*
X0044790Y0296670D03*
X0016320Y0294200D03*
X0014310Y0310500D03*
X0066240Y0340430D03*
X0077710Y0344350D03*
G54D23*
X-0024920Y0286560D03*
Y0284560D03*
X0039130Y0289550D03*
X0039630Y0289050D03*
X0040130Y0289550D03*
X0004400Y0307280D03*
X0004900Y0306780D03*
X0005400Y0307280D03*
G54D24*
X0076700Y0329700D03*
X0073700D03*
X0076710Y0328410D03*
X0073710D03*
G54D25*
X0057900Y0308800D03*
Y0330800D03*
X0050900Y0317800D03*
Y0319800D03*
X0065900Y0317800D03*
Y0321800D03*
Y0319800D03*
X0033930Y0339570D03*
Y0312970D03*
G54D26*
X-0001670Y0335880D03*
Y0334880D03*
X0011310Y0289500D03*
X0012310D03*
X0018720Y0289520D03*
X0019720D03*
X0026010Y0287160D03*
X0027010D03*
G54D27*
X-0002250Y0283700D03*
Y0283200D03*
Y0282700D03*
Y0282200D03*
Y0281700D03*
Y0281200D03*
Y0280700D03*
X0001370D03*
Y0281200D03*
Y0281700D03*
Y0282200D03*
Y0282700D03*
Y0283200D03*
Y0283700D03*
Y0284200D03*
G54D28*
X-0002250D03*
G54D31*
X0002240Y0279830D03*
X0002530Y0284460D03*
X-0003240Y0279830D03*
X-0027330Y0302540D03*
X0076700Y0290400D03*
X0075540Y0314400D03*
X0073960Y0310460D03*
X0075600Y0331690D03*
X0075900Y0287900D03*
X0072960Y0294420D03*
X0073500Y0298610D03*
X0073060Y0296420D03*
X-0014700Y0324210D03*
X0074210Y0300330D03*
X0076550Y0303890D03*
X0076230Y0316420D03*
X0074000Y0285470D03*
X0077230Y0332350D03*
X0073500Y0308390D03*
X0074490Y0312410D03*
X0074850Y0286680D03*
X0072920Y0306420D03*
X0073120Y0284690D03*
X0076900Y0292400D03*
X0074900Y0302400D03*
G54D33*
X-0003340Y0284440D03*
G54D34*
%LPC*%
X0002530Y0284460D03*
X0002240Y0279830D03*
X0002530Y0284460D03*
D03*
X0076700Y0290400D03*
X-0003340Y0284440D03*
D03*
X-0003240Y0279830D03*
X-0003340Y0284440D03*
X0076700Y0290400D03*
X-0027330Y0302540D03*
X0076700Y0290400D03*
X0075540Y0314400D03*
X0073960Y0310460D03*
X0075600Y0331690D03*
X0075900Y0287900D03*
X0072960Y0294420D03*
X0073500Y0298610D03*
X0073060Y0296420D03*
X-0014700Y0324210D03*
X0074210Y0300330D03*
X0076550Y0303890D03*
X0076230Y0316420D03*
X0074000Y0285470D03*
X0077230Y0332350D03*
X0073500Y0308390D03*
X0074490Y0312410D03*
X0074850Y0286680D03*
X0072920Y0306420D03*
X0073120Y0284690D03*
X0076900Y0292400D03*
X0074900Y0302400D03*
%LPD*%
G54D35*
%LPC*%
X-0024920Y0286560D03*
Y0284560D03*
X0037590Y0281570D03*
Y0282570D03*
Y0283570D03*
X0040640Y0281620D03*
Y0282620D03*
Y0283620D03*
X-0008290Y0315600D03*
X-0009290D03*
X-0010290D03*
X-0001670Y0336880D03*
Y0335880D03*
Y0334880D03*
X0031400Y0293600D03*
Y0292600D03*
Y0291600D03*
Y0290600D03*
Y0289600D03*
Y0288600D03*
Y0287600D03*
Y0286600D03*
Y0285600D03*
Y0284600D03*
Y0283600D03*
Y0282600D03*
X0034400D03*
Y0283600D03*
Y0284600D03*
Y0285600D03*
Y0286600D03*
Y0287600D03*
Y0288600D03*
Y0289600D03*
Y0290600D03*
Y0291600D03*
Y0292600D03*
Y0293600D03*
X0010310Y0289500D03*
X0011310D03*
X0012310D03*
X0017720Y0289520D03*
X0018720D03*
X0019720D03*
X0025010Y0287160D03*
X0026010D03*
X0027010D03*
X0057900Y0308800D03*
Y0330800D03*
X0050900Y0317800D03*
Y0319800D03*
X0065900Y0317800D03*
Y0321800D03*
Y0319800D03*
X-0003900Y0307140D03*
X-0002900D03*
X-0001900D03*
X-0000900D03*
X0000100D03*
X0001100D03*
X0002100D03*
Y0310140D03*
X0001100D03*
X0000100D03*
X-0000900D03*
X-0001900D03*
X-0002900D03*
X-0003900D03*
X-0014630Y0291580D03*
Y0290580D03*
Y0289580D03*
Y0288580D03*
Y0287580D03*
Y0286580D03*
Y0285580D03*
Y0284580D03*
Y0283580D03*
X-0011630D03*
Y0284580D03*
Y0285580D03*
Y0286580D03*
Y0287580D03*
Y0288580D03*
Y0289580D03*
Y0290580D03*
Y0291580D03*
X-0022410Y0303560D03*
Y0302560D03*
Y0301560D03*
Y0300560D03*
Y0299560D03*
Y0298560D03*
Y0297560D03*
Y0296560D03*
Y0295560D03*
Y0294560D03*
Y0293560D03*
Y0292560D03*
Y0291560D03*
Y0290560D03*
Y0289560D03*
Y0288560D03*
Y0287560D03*
Y0286560D03*
Y0285560D03*
Y0284560D03*
X-0016410D03*
Y0285560D03*
Y0286560D03*
Y0287560D03*
Y0288560D03*
Y0289560D03*
Y0290560D03*
Y0291560D03*
Y0292560D03*
Y0293560D03*
Y0294560D03*
Y0295560D03*
Y0296560D03*
Y0297560D03*
Y0298560D03*
Y0299560D03*
Y0300560D03*
Y0301560D03*
Y0302560D03*
Y0303560D03*
X0000700Y0291500D03*
X0006700D03*
Y0296500D03*
X0000700D03*
X0033930Y0339570D03*
Y0312970D03*
X0047930Y0323570D03*
Y0325570D03*
Y0331570D03*
Y0333570D03*
X0017930Y0322570D03*
Y0324570D03*
Y0326570D03*
X-0013600Y0307040D03*
Y0308040D03*
Y0309040D03*
Y0310040D03*
X0059050Y0296680D03*
Y0293680D03*
Y0291680D03*
Y0289680D03*
X0062050D03*
Y0291680D03*
Y0293680D03*
Y0296680D03*
X0051990Y0296660D03*
Y0293660D03*
Y0291660D03*
Y0289660D03*
X0054990D03*
Y0291660D03*
Y0293660D03*
Y0296660D03*
X0044790Y0296670D03*
Y0293670D03*
Y0291670D03*
Y0289670D03*
X0047790D03*
Y0291670D03*
Y0293670D03*
Y0296670D03*
X-0005200Y0288600D03*
X-0001200D03*
Y0316200D03*
Y0312200D03*
X0076700Y0329700D03*
X0073700D03*
X0076710Y0328410D03*
X0073710D03*
X0036620Y0286480D03*
Y0290480D03*
X0041480Y0288280D03*
Y0292280D03*
X0003480Y0280580D03*
X0007480D03*
X0003560Y0281760D03*
X0007560D03*
X0003560Y0282860D03*
X0007560D03*
X0003540Y0284090D03*
X0007540D03*
X-0008700Y0280520D03*
X-0004700D03*
X-0008700Y0281720D03*
X-0004700D03*
X-0008700Y0282920D03*
X-0004700D03*
X-0008700Y0284120D03*
X-0004700D03*
X-0003030Y0301020D03*
Y0305020D03*
X-0025460Y0289560D03*
X-0029460D03*
X0064790Y0304680D03*
Y0300680D03*
X0070780Y0308160D03*
Y0304160D03*
X0064600Y0311130D03*
Y0307130D03*
X0070790Y0314060D03*
Y0310060D03*
X-0000480Y0301100D03*
Y0305100D03*
X-0004270Y0304960D03*
Y0300960D03*
X0002920Y0301100D03*
Y0305100D03*
X0005600Y0305190D03*
Y0301190D03*
X0004260Y0305100D03*
Y0301100D03*
X-0025270Y0297350D03*
Y0301350D03*
X-0025410Y0315000D03*
X-0029410D03*
X-0025390Y0313510D03*
X-0029390D03*
X-0025490Y0307800D03*
X-0029490D03*
X-0030840Y0328490D03*
Y0332490D03*
X-0013680Y0303560D03*
Y0302560D03*
Y0301560D03*
Y0300560D03*
Y0299560D03*
Y0298560D03*
Y0297560D03*
Y0296560D03*
Y0295560D03*
X0039130Y0289550D03*
X0039630Y0289050D03*
X0040130Y0289550D03*
X0004400Y0307280D03*
X0004900Y0306780D03*
X0005400Y0307280D03*
X-0009680Y0303560D03*
X-0008680D03*
X-0009680Y0302560D03*
X-0008680D03*
X-0009680Y0301560D03*
X-0008680D03*
X-0009680Y0300560D03*
X-0008680D03*
X-0009680Y0299560D03*
X-0008680D03*
X-0009680Y0298560D03*
X-0008680D03*
X-0009680Y0297560D03*
X-0008680D03*
X-0009680Y0296560D03*
X-0008680D03*
X-0010980Y0321210D03*
X-0011980D03*
X-0010980Y0322210D03*
X-0011980D03*
X-0010980Y0323210D03*
X-0011980D03*
X-0010980Y0324210D03*
X-0011980D03*
X-0010980Y0325210D03*
X-0011980D03*
X0016320Y0294200D03*
X0014320Y0294300D03*
X0012320D03*
X0014310Y0310500D03*
X0012310Y0310600D03*
X0010310D03*
X0066240Y0340430D03*
X0077710Y0344350D03*
X-0006200Y0289800D03*
X-0005200D03*
X0072540Y0338400D03*
Y0336400D03*
Y0342400D03*
Y0340400D03*
X0069090Y0300690D03*
Y0301690D03*
Y0302690D03*
Y0303690D03*
X0066090D03*
Y0302690D03*
Y0301690D03*
Y0300690D03*
X0069290Y0307130D03*
Y0308130D03*
Y0309130D03*
Y0310130D03*
X0066290D03*
Y0309130D03*
Y0308130D03*
Y0307130D03*
X0055180Y0342660D03*
Y0333660D03*
X0061800Y0342630D03*
Y0333630D03*
X0073740Y0324420D03*
Y0315420D03*
X-0015520Y0321170D03*
X-0016520D03*
X-0017520D03*
X-0018520D03*
X-0019520D03*
X-0020520D03*
X-0021520D03*
X-0022520D03*
X-0023520D03*
Y0318170D03*
X-0022520D03*
X-0021520D03*
X-0020520D03*
X-0019520D03*
X-0018520D03*
X-0017520D03*
X-0016520D03*
X-0015520D03*
X0020530Y0293120D03*
X0025030D03*
X0007760Y0313500D03*
X0003260D03*
X0041050Y0285280D03*
X0036550D03*
X0037720Y0286480D03*
Y0290980D03*
X-0030800Y0300709D03*
Y0301709D03*
X0016200Y0315000D03*
Y0310500D03*
X0002400Y0333880D03*
Y0338380D03*
X0001300Y0300580D03*
Y0305080D03*
X0057530Y0300680D03*
X0062030D03*
X0050490Y0300590D03*
X0054990D03*
X0043310Y0300560D03*
X0047810D03*
X-0030900Y0318609D03*
Y0319609D03*
Y0312509D03*
Y0313509D03*
Y0306709D03*
Y0307709D03*
X-0030850Y0336589D03*
Y0337589D03*
X0066090Y0297060D03*
Y0299060D03*
X0064280Y0305800D03*
X0066280D03*
X-0003900Y0313400D03*
Y0311400D03*
X0009230Y0301190D03*
X0007230D03*
X-0013650Y0316180D03*
Y0318180D03*
X0060030Y0302410D03*
X0062030D03*
X0052990Y0302300D03*
X0054990D03*
X0045810Y0302200D03*
X0047810D03*
X-0008700Y0310000D03*
Y0308000D03*
X-0010220Y0310030D03*
X-0012220D03*
X-0010100Y0288240D03*
Y0286240D03*
X-0016500Y0307200D03*
Y0305200D03*
X-0024620Y0327750D03*
Y0329750D03*
X-0005720Y0334890D03*
Y0336890D03*
X0008880Y0333870D03*
Y0336870D03*
X0010300Y0285760D03*
X0012300D03*
X0019710Y0285810D03*
X0017710D03*
X0006260Y0319910D03*
X0003260D03*
X0014090D03*
X0011090D03*
X0000100Y0313200D03*
Y0312200D03*
X0040630Y0286470D03*
X0039630D03*
X0036720Y0292180D03*
X0037720D03*
X0036720Y0293380D03*
X0037720D03*
X0027800Y0292700D03*
Y0290700D03*
X0030140Y0291530D03*
Y0292530D03*
X0001370Y0286440D03*
Y0285440D03*
X-0002260Y0286850D03*
Y0285850D03*
X0025000Y0284520D03*
Y0282520D03*
X0003900Y0334880D03*
Y0333880D03*
X0003260Y0315030D03*
X0004260D03*
X0012310Y0315000D03*
X0013310D03*
X0027820Y0284620D03*
X0028820D03*
X0027830Y0282100D03*
X0029830D03*
X0019700Y0281950D03*
X0017700D03*
X0021080D03*
Y0282950D03*
X-0021460Y0324250D03*
X-0023460D03*
X-0019520Y0324300D03*
Y0323300D03*
X-0023910Y0287920D03*
X-0024910D03*
X-0023940Y0283340D03*
X-0024940D03*
X-0027610Y0295510D03*
X-0025610D03*
X0070460Y0344480D03*
X-0029134Y0344488D03*
X0007080Y0344490D03*
X0040950D03*
X-0029134Y0277165D03*
X0007087D03*
X0040945D03*
X0070472D03*
X0017200Y0334300D03*
X0015200Y0336300D03*
X0017200D03*
X0015200Y0334300D03*
X0007900Y0326320D03*
X0009900Y0328320D03*
Y0326320D03*
X0007900Y0328320D03*
%LPD*%
M02*
