%
T1C0.0280F200S100
X-027330Y302540
X-014700Y324210
X-003340Y284440
X-003240Y279830
X002240Y279830
X002530Y284460
X072920Y306420
X072960Y294420
X073060Y296420
X073120Y284690
X073500Y298610
X073500Y308390
X073700Y329700
X073710Y328410
X073960Y310460
X074000Y285470
X074210Y300330
X074490Y312410
X074850Y286680
X074900Y302400
X075540Y314400
X075600Y331690
X075900Y287900
X076230Y316420
X076550Y303890
X076700Y290400
X076710Y328410
X076700Y329700
X076900Y292400
X077230Y332350
T2C0.0310F200S100
X-030840Y328490
X-030840Y332490
X-029490Y307800
X-029460Y289560
X-029410Y315000
X-029390Y313510
X-027610Y295510
X-025610Y295510
X-025490Y307800
X-025460Y289560
X-025410Y315000
X-025390Y313510
X-025270Y297350
X-025270Y301350
X-024940Y283340
X-024910Y287920
X-023940Y283340
X-023910Y287920
X-023460Y324250
X-022410Y284560
X-022410Y285560
X-022410Y286560
X-022410Y287560
X-022410Y288560
X-022410Y289560
X-022410Y290560
X-022410Y291560
X-022410Y292560
X-022410Y293560
X-022410Y294560
X-022410Y295560
X-022410Y296560
X-022410Y297560
X-022410Y298560
X-022410Y299560
X-022410Y300560
X-022410Y301560
X-022410Y302560
X-022410Y303560
X-021460Y324250
X-019520Y323300
X-019520Y324300
X-016410Y284560
X-016410Y285560
X-016410Y286560
X-016410Y287560
X-016410Y288560
X-016410Y289560
X-016410Y290560
X-016410Y291560
X-016410Y292560
X-016410Y293560
X-016410Y294560
X-016410Y295560
X-016410Y296560
X-016410Y297560
X-016410Y298560
X-016410Y299560
X-016410Y300560
X-016410Y301560
X-016410Y302560
X-016410Y303560
X-010290Y315600
X-009290Y315600
X-008700Y280520
X-008700Y281720
X-008700Y282920
X-008700Y284120
X-008290Y315600
X-005200Y288600
X-004700Y280520
X-004700Y281720
X-004700Y282920
X-004700Y284120
X-004270Y300960
X-004270Y304960
X-003030Y301020
X-003030Y305020
X-002260Y285850
X-002260Y286850
X-001200Y288600
X-000480Y301100
X-000480Y305100
X-001200Y312200
X-001200Y316200
X000100Y312200
X000100Y313200
X001370Y285440
X001370Y286440
X002920Y301100
X002920Y305100
X003260Y315030
X003480Y280580
X003540Y284090
X003560Y281760
X003560Y282860
X003900Y333880
X003900Y334880
X004260Y301100
X004260Y305100
X004400Y307280
X004260Y315030
X004900Y306780
X005400Y307280
X005600Y301190
X005600Y305190
X007480Y280580
X007540Y284090
X007560Y281760
X007560Y282860
X012310Y315000
X013310Y315000
X017700Y281950
X019700Y281950
X021080Y281950
X021080Y282950
X025000Y282520
X025000Y284520
X027800Y290700
X027800Y292700
X027820Y284620
X027830Y282100
X028820Y284620
X029830Y282100
X030140Y291530
X030140Y292530
X031400Y282600
X031400Y283600
X031400Y284600
X031400Y285600
X031400Y286600
X031400Y287600
X031400Y288600
X031400Y289600
X031400Y290600
X031400Y291600
X031400Y292600
X031400Y293600
X034400Y282600
X034400Y283600
X034400Y284600
X034400Y285600
X034400Y286600
X034400Y287600
X034400Y288600
X034400Y289600
X034400Y290600
X034400Y291600
X034400Y292600
X034400Y293600
X036620Y286480
X036620Y290480
X036720Y292180
X036720Y293380
X037590Y281570
X037590Y282570
X037590Y283570
X037720Y292180
X037720Y293380
X039130Y289550
X039630Y286470
X039630Y289050
X040130Y289550
X040630Y286470
X040640Y281620
X040640Y282620
X040640Y283620
X041480Y288280
X041480Y292280
X064600Y307130
X064600Y311130
X064790Y300680
X064790Y304680
X066090Y300690
X066090Y301690
X066090Y302690
X066090Y303690
X066290Y307130
X066290Y308130
X066290Y309130
X066290Y310130
X069090Y300690
X069090Y301690
X069090Y302690
X069090Y303690
X069290Y307130
X069290Y308130
X069290Y309130
X069290Y310130
X070780Y304160
X070780Y308160
X070790Y310060
X070790Y314060
T3C0.0340F200S100
X-024920Y284560
X-024920Y286560
X-023520Y318170
X-023520Y321170
X-022520Y318170
X-021520Y318170
X-021520Y321170
X-022520Y321170
X-020520Y318170
X-019520Y318170
X-019520Y321170
X-020520Y321170
X-018520Y318170
X-017520Y318170
X-017520Y321170
X-018520Y321170
X-016520Y318170
X-015520Y318170
X-015520Y321170
X-016520Y321170
X-014630Y283580
X-014630Y284580
X-014630Y285580
X-014630Y286580
X-014630Y287580
X-014630Y288580
X-014630Y289580
X-014630Y290580
X-014630Y291580
X-011630Y283580
X-011630Y284580
X-011630Y285580
X-011630Y286580
X-011630Y287580
X-011630Y288580
X-011630Y289580
X-011630Y290580
X-011630Y291580
X-003900Y307140
X-002900Y307140
X-002900Y310140
X-003900Y310140
X-001900Y307140
X-000900Y307140
X-000900Y310140
X-001900Y310140
X000100Y307140
X001100Y307140
X001100Y310140
X000100Y310140
X002100Y307140
X002100Y310140
T9C0.0580F200S100
X-005720Y334890
X-005720Y336890
X000700Y291500
X000700Y296500
X003260Y319910
X006260Y319910
X006700Y291500
X006700Y296500
X007900Y328320
X008880Y333870
X008880Y336870
X009900Y326320
X009900Y328320
X010300Y285760
X010310Y310600
X011090Y319910
X012300Y285760
X012310Y310600
X012320Y294300
X014090Y319910
X014320Y294300
X015200Y334300
X015200Y336300
X017200Y336300
X017710Y285810
X019710Y285810
X044790Y289670
X044790Y291670
X044790Y293670
X044790Y296670
X047790Y289670
X047790Y291670
X047790Y293670
X047790Y296670
X051990Y289660
X051990Y291660
X051990Y293660
X051990Y296660
X054990Y289660
X054990Y291660
X054990Y293660
X054990Y296660
X059050Y289680
X059050Y291680
X059050Y293680
X059050Y296680
X062050Y289680
X062050Y291680
X062050Y293680
X062050Y296680
X072540Y336400
X072540Y338400
X072540Y340400
X072540Y342400
T4C0.0350F200S100
X-030900Y306709
X-030900Y307709
X-030900Y312509
X-030900Y313509
X-030900Y318609
X-030900Y319609
X-030850Y336589
X-030850Y337589
X-030800Y300709
X-030800Y301709
X-013680Y295560
X-013680Y296560
X-013680Y297560
X-013680Y298560
X-013680Y299560
X-013680Y300560
X-013680Y301560
X-013680Y302560
X-013680Y303560
X-013600Y307040
X-013600Y308040
X-013600Y309040
X-013600Y310040
X-011980Y321210
X-011980Y322210
X-011980Y323210
X-011980Y324210
X-011980Y325210
X-010980Y321210
X-010980Y322210
X-010980Y323210
X-010980Y324210
X-010980Y325210
X-009680Y296560
X-009680Y297560
X-009680Y298560
X-009680Y299560
X-009680Y300560
X-009680Y301560
X-009680Y302560
X-009680Y303560
X-008680Y296560
X-008680Y297560
X-008680Y298560
X-008680Y299560
X-008680Y300560
X-008680Y301560
X-008680Y302560
X-008680Y303560
T6C0.0390F200S100
X001300Y300580
X001300Y305080
X002400Y333880
X002400Y338380
X003260Y313500
X007760Y313500
X007900Y326320
X016200Y310500
X016200Y315000
X017200Y334300
X020530Y293120
X025030Y293120
X036550Y285280
X037720Y286480
X041050Y285280
X037720Y290980
X043310Y300560
X047810Y300560
X050490Y300590
X054990Y300590
X057530Y300680
X062030Y300680
T7C0.0430F200S100
X-001670Y336880
X010310Y289500
X017720Y289520
X025010Y287160
T8C0.0540F200S100
X-001670Y334880
X-001670Y335880
X011310Y289500
X012310Y289500
X018720Y289520
X019720Y289520
X026010Y287160
X027010Y287160
T5C0.0370F200S100
X-024620Y327750
X-024620Y329750
X-016500Y305200
X-016500Y307200
X-013650Y316180
X-013650Y318180
X-012220Y310030
X-010220Y310030
X-010100Y286240
X-010100Y288240
X-008700Y308000
X-008700Y310000
X-006200Y289800
X-005200Y289800
X-003900Y311400
X-003900Y313400
X007230Y301190
X009230Y301190
X045810Y302200
X047810Y302200
X052990Y302300
X054990Y302300
X060030Y302410
X062030Y302410
X064280Y305800
X066090Y297060
X066090Y299060
X066280Y305800
T10C0.0700F200S100
X014310Y310500
X016320Y294200
X017930Y322570
X017930Y324570
X017930Y326570
X047930Y323570
X047930Y325570
X047930Y331570
X047930Y333570
X055180Y333660
X061800Y333630
X061800Y342630
X055180Y342660
X066240Y340430
X073740Y315420
X073740Y324420
X077710Y344350
T13C0.1200F200S100
X033930Y312970
X057900Y308800
X057900Y330800
X033930Y339570
T14C0.1500F200S100
X-029134Y277165
X-029134Y344488
X007080Y344490
X007087Y277165
X040945Y277165
X040950Y344490
X070460Y344480
X070472Y277165
T12C0.0900F200S100
X050900Y317800
X050900Y319800
T11C0.0800F200S100
X065900Y317800
X065900Y319800
X065900Y321800
M30
